<svg width="25" height="25" viewBox="0 0 25 25" fill="none" xmlns="http://www.w3.org/2000/svg">
<circle cx="12.5625" cy="12.3613" r="12" fill="white"/>
<path d="M17.0611 10.8615C17.0611 10.6626 16.9821 10.4718 16.8415 10.3311C16.7008 10.1905 16.5101 10.1115 16.3111 10.1115H7.61864L9.34364 8.39397C9.48487 8.25274 9.56421 8.06119 9.56421 7.86147C9.56421 7.66174 9.48487 7.4702 9.34364 7.32897C9.20241 7.18774 9.01087 7.1084 8.81114 7.1084C8.61141 7.1084 8.41987 7.18774 8.27864 7.32897L5.27864 10.329C5.17457 10.4344 5.10407 10.5684 5.07604 10.7139C5.04801 10.8593 5.06371 11.0099 5.12114 11.1465C5.1774 11.2834 5.27295 11.4007 5.39574 11.4834C5.51853 11.5662 5.66307 11.6107 5.81114 11.6115H16.3111C16.5101 11.6115 16.7008 11.5324 16.8415 11.3918C16.9821 11.2511 17.0611 11.0604 17.0611 10.8615ZM20.0011 13.5765C19.9449 13.4395 19.8493 13.3223 19.7265 13.2395C19.6037 13.1568 19.4592 13.1122 19.3111 13.1115H8.81114C8.61223 13.1115 8.42146 13.1905 8.28081 13.3311C8.14016 13.4718 8.06114 13.6626 8.06114 13.8615C8.06114 14.0604 8.14016 14.2511 8.28081 14.3918C8.42146 14.5325 8.61223 14.6115 8.81114 14.6115H17.5036L15.7786 16.329C15.7083 16.3987 15.6525 16.4816 15.6145 16.573C15.5764 16.6644 15.5568 16.7625 15.5568 16.8615C15.5568 16.9605 15.5764 17.0585 15.6145 17.1499C15.6525 17.2413 15.7083 17.3242 15.7786 17.394C15.8484 17.4643 15.9313 17.5201 16.0227 17.5581C16.1141 17.5962 16.2121 17.6158 16.3111 17.6158C16.4101 17.6158 16.5082 17.5962 16.5996 17.5581C16.691 17.5201 16.7739 17.4643 16.8436 17.394L19.8436 14.394C19.9477 14.2885 20.0182 14.1546 20.0462 14.0091C20.0743 13.8636 20.0586 13.7131 20.0011 13.5765Z" fill="#808080"/>
</svg>
