<svg width="25" height="25" viewBox="0 0 25 25" fill="none" xmlns="http://www.w3.org/2000/svg">
<path d="M7.04297 18H10.468V14.675H13.043V11.35H15.618V8H18.043V7H14.618V10.325H12.043V13.65H9.46797V17H7.04297V18ZM6.15797 20.5C5.69797 20.5 5.31364 20.346 5.00497 20.038C4.6963 19.73 4.5423 19.3453 4.54297 18.884V6.116C4.54297 5.65533 4.6973 5.271 5.00597 4.963C5.31464 4.655 5.69897 4.50067 6.15897 4.5H18.928C19.388 4.5 19.7723 4.65433 20.081 4.963C20.3896 5.27167 20.5436 5.656 20.543 6.116V18.885C20.543 19.345 20.389 19.7293 20.081 20.038C19.773 20.3467 19.3883 20.5007 18.927 20.5H6.15797ZM6.15797 19.5H18.928C19.0813 19.5 19.2223 19.436 19.351 19.308C19.4796 19.18 19.5436 19.0387 19.543 18.884V6.116C19.543 5.962 19.479 5.82067 19.351 5.692C19.223 5.56333 19.0816 5.49933 18.927 5.5H6.15897C6.00497 5.5 5.86364 5.564 5.73497 5.692C5.6063 5.82 5.5423 5.96133 5.54297 6.116V18.885C5.54297 19.0383 5.60697 19.1793 5.73497 19.308C5.86297 19.4367 6.00397 19.5007 6.15797 19.5Z" fill="#8F90A6"/>
</svg>
