<svg width="25" height="24" viewBox="0 0 25 24" fill="none" xmlns="http://www.w3.org/2000/svg">
<path d="M17.293 3.75C15.357 3.75 13.662 4.5825 12.6055 5.98969C11.5489 4.5825 9.85391 3.75 7.91797 3.75C6.37693 3.75174 4.89951 4.36468 3.80983 5.45436C2.72015 6.54404 2.10721 8.02146 2.10547 9.5625C2.10547 16.125 11.8358 21.4369 12.2502 21.6562C12.3594 21.715 12.4815 21.7458 12.6055 21.7458C12.7295 21.7458 12.8516 21.715 12.9608 21.6562C13.3752 21.4369 23.1055 16.125 23.1055 9.5625C23.1037 8.02146 22.4908 6.54404 21.4011 5.45436C20.3114 4.36468 18.834 3.75174 17.293 3.75ZM12.6055 20.1375C10.8936 19.14 3.60547 14.5959 3.60547 9.5625C3.60696 8.41921 4.06179 7.32317 4.87021 6.51475C5.67864 5.70632 6.77468 5.25149 7.91797 5.25C9.74141 5.25 11.2723 6.22125 11.9117 7.78125C11.9682 7.91881 12.0643 8.03646 12.1879 8.11926C12.3114 8.20206 12.4568 8.24627 12.6055 8.24627C12.7542 8.24627 12.8995 8.20206 13.0231 8.11926C13.1466 8.03646 13.2427 7.91881 13.2992 7.78125C13.9386 6.21844 15.4695 5.25 17.293 5.25C18.4363 5.25149 19.5323 5.70632 20.3407 6.51475C21.1492 7.32317 21.604 8.41921 21.6055 9.5625C21.6055 14.5884 14.3155 19.1391 12.6055 20.1375Z" fill="#8F90A6"/>
</svg>
