<svg width="18" height="18" viewBox="0 0 18 18" fill="none" xmlns="http://www.w3.org/2000/svg">
<path d="M8.99936 6.67728C7.71727 6.67728 6.67793 7.71662 6.67793 8.99871C6.67793 10.2808 7.71727 11.3201 8.99936 11.3201C10.2815 11.3201 11.3208 10.2808 11.3208 8.99871C11.3208 7.71662 10.2815 6.67728 8.99936 6.67728Z" fill="#29CDB5"/>
<path fill-rule="evenodd" clip-rule="evenodd" d="M5.26332 2.62833C7.72626 2.35306 10.2725 2.35306 12.7354 2.62833C14.0914 2.77988 15.1851 3.84829 15.3443 5.20905C15.6388 7.7269 15.6388 10.2705 15.3443 12.7884C15.1851 14.1491 14.0914 15.2175 12.7354 15.3691C10.2725 15.6444 7.72626 15.6444 5.26332 15.3691C3.90732 15.2175 2.81361 14.1491 2.65446 12.7884C2.35997 10.2705 2.35997 7.7269 2.65446 5.20905C2.81361 3.84829 3.90732 2.77988 5.26332 2.62833ZM12.5708 4.71299C12.1763 4.71299 11.8565 5.03279 11.8565 5.42728C11.8565 5.82177 12.1763 6.14156 12.5708 6.14156C12.9653 6.14156 13.2851 5.82177 13.2851 5.42728C13.2851 5.03279 12.9653 4.71299 12.5708 4.71299ZM5.60651 8.99871C5.60651 7.12488 7.12554 5.60585 8.99936 5.60585C10.8732 5.60585 12.3922 7.12488 12.3922 8.99871C12.3922 10.8725 10.8732 12.3916 8.99936 12.3916C7.12554 12.3916 5.60651 10.8725 5.60651 8.99871Z" fill="#29CDB5"/>
</svg>
