<svg width="25" height="24" viewBox="0 0 25 24" fill="none" xmlns="http://www.w3.org/2000/svg">
<path d="M22.3125 11.2928L14.3125 3.29279C14.1726 3.15298 13.9945 3.05777 13.8005 3.0192C13.6065 2.98064 13.4055 3.00044 13.2228 3.07611C13.0401 3.15178 12.884 3.27992 12.7741 3.44433C12.6642 3.60874 12.6055 3.80204 12.6055 3.99979V7.54479C9.87376 7.79758 7.3347 9.06065 5.48516 11.0868C3.63562 13.113 2.60874 15.7564 2.60547 18.4998V19.9998C2.60563 20.2074 2.67038 20.4098 2.79074 20.5789C2.91111 20.748 3.08112 20.8755 3.27719 20.9436C3.47327 21.0118 3.68569 21.0172 3.885 20.9592C4.0843 20.9011 4.26061 20.7825 4.38947 20.6198C5.36931 19.4549 6.57141 18.4969 7.92557 17.8017C9.27973 17.1065 10.7588 16.6881 12.2765 16.5708C12.3265 16.5648 12.4515 16.5548 12.6055 16.5448V19.9998C12.6055 20.1975 12.6642 20.3908 12.7741 20.5552C12.884 20.7197 13.0401 20.8478 13.2228 20.9235C13.4055 20.9991 13.6065 21.0189 13.8005 20.9804C13.9945 20.9418 14.1726 20.8466 14.3125 20.7068L22.3125 12.7068C22.4999 12.5193 22.6053 12.265 22.6053 11.9998C22.6053 11.7346 22.4999 11.4803 22.3125 11.2928ZM14.6055 17.5858V15.4998C14.6055 15.2346 14.5001 14.9802 14.3126 14.7927C14.125 14.6051 13.8707 14.4998 13.6055 14.4998C13.3505 14.4998 12.3095 14.5498 12.0435 14.5848C9.34826 14.8328 6.78274 15.8568 4.65747 17.5328C4.89871 15.3272 5.94501 13.2881 7.59602 11.8059C9.24704 10.3238 11.3867 9.50263 13.6055 9.49979C13.8707 9.49979 14.125 9.39443 14.3126 9.20689C14.5001 9.01936 14.6055 8.765 14.6055 8.49979V6.41379L20.1915 11.9998L14.6055 17.5858Z" fill="#8F90A6"/>
</svg>
