<svg width="25" height="25" viewBox="0 0 25 25" fill="none" xmlns="http://www.w3.org/2000/svg">
<path d="M5.29297 3.5H14.1055C14.623 3.5 15.043 3.92 15.043 4.4375V11C15.043 11.1989 15.122 11.3897 15.2626 11.5303C15.4033 11.671 15.5941 11.75 15.793 11.75H18.6055C19.123 11.75 19.543 12.17 19.543 12.6875V21.5H17.293V18.875C17.293 18.5766 17.1744 18.2905 16.9635 18.0795C16.7525 17.8685 16.4663 17.75 16.168 17.75H7.91797C7.6196 17.75 7.33345 17.8685 7.12247 18.0795C6.91149 18.2905 6.79297 18.5766 6.79297 18.875V21.5H4.54297V4.25C4.54297 4.05109 4.62199 3.86032 4.76264 3.71967C4.90329 3.57902 5.09406 3.5 5.29297 3.5ZM15.793 21.5H12.793V19.25H15.793V21.5ZM11.293 21.5H8.29297V19.25H11.293V21.5ZM20.293 23C20.4919 23 20.6826 22.921 20.8233 22.7803C20.964 22.6397 21.043 22.4489 21.043 22.25V12.6875C21.043 12.3674 20.9799 12.0504 20.8574 11.7547C20.7349 11.459 20.5554 11.1903 20.329 10.9639C20.1027 10.7376 19.834 10.558 19.5383 10.4355C19.2425 10.313 18.9256 10.25 18.6055 10.25H16.543V4.4375C16.543 4.1174 16.4799 3.80044 16.3574 3.50471C16.2349 3.20898 16.0554 2.94027 15.829 2.71393C15.6027 2.48758 15.334 2.30804 15.0383 2.18554C14.7425 2.06305 14.4256 2 14.1055 2H5.29297C4.69623 2 4.12394 2.23705 3.70198 2.65901C3.28002 3.08097 3.04297 3.65326 3.04297 4.25V22.25C3.04297 22.4489 3.12199 22.6397 3.26264 22.7803C3.40329 22.921 3.59406 23 3.79297 23H20.293ZM7.91797 8C8.21634 8 8.50249 7.88147 8.71346 7.6705C8.92444 7.45952 9.04297 7.17337 9.04297 6.875C9.04297 6.57663 8.92444 6.29048 8.71346 6.0795C8.50249 5.86853 8.21634 5.75 7.91797 5.75C7.6196 5.75 7.33345 5.86853 7.12247 6.0795C6.91149 6.29048 6.79297 6.57663 6.79297 6.875C6.79297 7.17337 6.91149 7.45952 7.12247 7.6705C7.33345 7.88147 7.6196 8 7.91797 8ZM7.91797 11.75C8.21634 11.75 8.50249 11.6315 8.71346 11.4205C8.92444 11.2095 9.04297 10.9234 9.04297 10.625C9.04297 10.3266 8.92444 10.0405 8.71346 9.8295C8.50249 9.61853 8.21634 9.5 7.91797 9.5C7.6196 9.5 7.33345 9.61853 7.12247 9.8295C6.91149 10.0405 6.79297 10.3266 6.79297 10.625C6.79297 10.9234 6.91149 11.2095 7.12247 11.4205C7.33345 11.6315 7.6196 11.75 7.91797 11.75ZM9.04297 14.375C9.04297 14.6734 8.92444 14.9595 8.71346 15.1705C8.50249 15.3815 8.21634 15.5 7.91797 15.5C7.6196 15.5 7.33345 15.3815 7.12247 15.1705C6.91149 14.9595 6.79297 14.6734 6.79297 14.375C6.79297 14.0766 6.91149 13.7905 7.12247 13.5795C7.33345 13.3685 7.6196 13.25 7.91797 13.25C8.21634 13.25 8.50249 13.3685 8.71346 13.5795C8.92444 13.7905 9.04297 14.0766 9.04297 14.375ZM11.668 8C11.9663 8 12.2525 7.88147 12.4635 7.6705C12.6744 7.45952 12.793 7.17337 12.793 6.875C12.793 6.57663 12.6744 6.29048 12.4635 6.0795C12.2525 5.86853 11.9663 5.75 11.668 5.75C11.3696 5.75 11.0835 5.86853 10.8725 6.0795C10.6615 6.29048 10.543 6.57663 10.543 6.875C10.543 7.17337 10.6615 7.45952 10.8725 7.6705C11.0835 7.88147 11.3696 8 11.668 8ZM12.793 10.625C12.793 10.9234 12.6744 11.2095 12.4635 11.4205C12.2525 11.6315 11.9663 11.75 11.668 11.75C11.3696 11.75 11.0835 11.6315 10.8725 11.4205C10.6615 11.2095 10.543 10.9234 10.543 10.625C10.543 10.3266 10.6615 10.0405 10.8725 9.8295C11.0835 9.61853 11.3696 9.5 11.668 9.5C11.9663 9.5 12.2525 9.61853 12.4635 9.8295C12.6744 10.0405 12.793 10.3266 12.793 10.625ZM11.668 15.5C11.9663 15.5 12.2525 15.3815 12.4635 15.1705C12.6744 14.9595 12.793 14.6734 12.793 14.375C12.793 14.0766 12.6744 13.7905 12.4635 13.5795C12.2525 13.3685 11.9663 13.25 11.668 13.25C11.3696 13.25 11.0835 13.3685 10.8725 13.5795C10.6615 13.7905 10.543 14.0766 10.543 14.375C10.543 14.6734 10.6615 14.9595 10.8725 15.1705C11.0835 15.3815 11.3696 15.5 11.668 15.5ZM16.543 14.375C16.543 14.6734 16.4244 14.9595 16.2135 15.1705C16.0025 15.3815 15.7163 15.5 15.418 15.5C15.1196 15.5 14.8335 15.3815 14.6225 15.1705C14.4115 14.9595 14.293 14.6734 14.293 14.375C14.293 14.0766 14.4115 13.7905 14.6225 13.5795C14.8335 13.3685 15.1196 13.25 15.418 13.25C15.7163 13.25 16.0025 13.3685 16.2135 13.5795C16.4244 13.7905 16.543 14.0766 16.543 14.375Z" fill="#8F90A6"/>
</svg>
