<svg width="18" height="18" viewBox="0 0 18 18" fill="none" xmlns="http://www.w3.org/2000/svg">
<g clip-path="url(#clip0_926_8003)">
<path d="M12.7435 1.54688H5.24522C3.17463 1.54688 1.49609 3.21576 1.49609 5.27443V12.7296C1.49609 14.7882 3.17463 16.4571 5.24522 16.4571H12.7435C14.814 16.4571 16.4926 14.7882 16.4926 12.7296V5.27443C16.4926 3.21576 14.814 1.54688 12.7435 1.54688Z" stroke="#1E2532" stroke-width="2" stroke-linecap="round" stroke-linejoin="round"/>
<path d="M11.9935 8.53292C12.086 9.15337 11.9794 9.78703 11.6889 10.3438C11.3983 10.9005 10.9386 11.352 10.3751 11.634C9.81159 11.916 9.173 12.0142 8.55015 11.9145C7.9273 11.8149 7.35191 11.5225 6.90582 11.079C6.45973 10.6354 6.16566 10.0634 6.06544 9.44409C5.96521 8.82482 6.06394 8.1899 6.34757 7.62963C6.6312 7.06937 7.08529 6.61228 7.64526 6.3234C8.20523 6.03451 8.84255 5.92853 9.46659 6.02054C10.1031 6.11439 10.6924 6.4093 11.1475 6.86171C11.6025 7.31411 11.8991 7.90003 11.9935 8.53292Z" stroke="#1E2532" stroke-width="2" stroke-linecap="round" stroke-linejoin="round"/>
<ellipse cx="13.1172" cy="4.89952" rx="1.125" ry="1.11827" fill="white"/>
</g>
<defs>
<clipPath id="clip0_926_8003">
<rect width="17.9958" height="17.8923" fill="white" transform="translate(-0.00390625 0.0546875)"/>
</clipPath>
</defs>
</svg>
