<svg width="29" height="29" viewBox="0 0 29 29" fill="none" xmlns="http://www.w3.org/2000/svg">
<g clip-path="url(#clip0_976_2554)">
<path d="M28.3789 14.5C28.3789 6.76801 22.1109 0.5 14.3789 0.5C6.64691 0.5 0.378906 6.76801 0.378906 14.5C0.378906 21.4877 5.49848 27.2796 12.1914 28.3299V18.5469H8.63672V14.5H12.1914V11.4156C12.1914 7.90687 14.2816 5.96875 17.4794 5.96875C19.0107 5.96875 20.6133 6.24219 20.6133 6.24219V9.6875H18.848C17.1089 9.6875 16.5664 10.7668 16.5664 11.875V14.5H20.4492L19.8285 18.5469H16.5664V28.3299C23.2593 27.2796 28.3789 21.4877 28.3789 14.5Z" fill="#1877F2"/>
<path d="M19.8285 18.5469L20.4492 14.5H16.5664V11.875C16.5664 10.7679 17.1089 9.6875 18.848 9.6875H20.6133V6.24219C20.6133 6.24219 19.0112 5.96875 17.4794 5.96875C14.2816 5.96875 12.1914 7.90688 12.1914 11.4156V14.5H8.63672V18.5469H12.1914V28.3299C13.6409 28.5567 15.1169 28.5567 16.5664 28.3299V18.5469H19.8285Z" fill="white"/>
</g>
<defs>
<clipPath id="clip0_976_2554">
<rect width="28" height="28" fill="white" transform="translate(0.378906 0.5)"/>
</clipPath>
</defs>
</svg>
