<svg width="169" height="44" viewBox="0 0 169 44" fill="none" xmlns="http://www.w3.org/2000/svg">
<path opacity="0.8" d="M18.7778 0L0 12.193V12.2159L14.5202 21.6393L18.7778 18.8697V0Z" fill="#69B99D"/>
<path opacity="0.8" d="M0 31.0972L18.7778 43.2786V24.4089L14.5202 21.6393L0 31.0627V31.0972Z" fill="#69B99D"/>
<path opacity="0.8" d="M39.0004 12.5994L20.2227 0V19.4988L24.492 22.3607L39.0004 12.6232V12.5994Z" fill="#69B99D"/>
<path opacity="0.8" d="M20.2227 44L39.0004 31.807V31.7839L24.492 22.3607L20.2227 25.1302V44Z" fill="#69B99D"/>
<path opacity="0.8" d="M0 12.2623V31.0164L14.4444 21.6394L0 12.2623Z" fill="#3A3737"/>
<path opacity="0.8" d="M39.0001 31.7378V12.623L24.5557 22.3608L39.0001 31.7378Z" fill="#3A3737"/>
<path d="M58.072 13.64V11.944H62.808C63.3733 11.944 63.8213 11.7947 64.152 11.496C64.4827 11.1867 64.648 10.76 64.648 10.216C64.648 9.65067 64.4827 9.21867 64.152 8.92C63.8213 8.62133 63.3733 8.472 62.808 8.472H58.328V17H56.2V6.648H62.616C63.192 6.648 63.7307 6.71733 64.232 6.856C64.744 6.99467 65.1867 7.208 65.56 7.496C65.944 7.784 66.2427 8.152 66.456 8.6C66.6693 9.048 66.776 9.58667 66.776 10.216C66.776 10.8347 66.6693 11.3627 66.456 11.8C66.2427 12.2373 65.944 12.5947 65.56 12.872C65.1867 13.1387 64.744 13.336 64.232 13.464C63.7307 13.5813 63.192 13.64 62.616 13.64H58.072ZM69.0989 17V6.648H76.1229C76.9229 6.648 77.6162 6.76 78.2029 6.984C78.8002 7.19733 79.2642 7.53867 79.5949 8.008C79.9255 8.46667 80.0909 9.05867 80.0909 9.784C80.0909 10.2747 80.0055 10.6907 79.8349 11.032C79.6642 11.3733 79.4242 11.6507 79.1149 11.864C78.8162 12.0773 78.4695 12.2427 78.0749 12.36C77.6802 12.4667 77.2589 12.536 76.8109 12.568L76.5869 12.44C77.3335 12.4507 77.9469 12.5147 78.4269 12.632C78.9069 12.7387 79.2642 12.9413 79.4989 13.24C79.7442 13.528 79.8669 13.96 79.8669 14.536V17H77.7389V14.68C77.7389 14.2853 77.6695 13.9813 77.5309 13.768C77.3922 13.544 77.1415 13.3893 76.7789 13.304C76.4269 13.2187 75.9149 13.176 75.2429 13.176H71.2269V17H69.0989ZM71.2269 11.512H76.1229C76.7202 11.512 77.1735 11.368 77.4829 11.08C77.8029 10.792 77.9629 10.4027 77.9629 9.912C77.9629 9.44267 77.8029 9.08533 77.4829 8.84C77.1735 8.59467 76.7202 8.472 76.1229 8.472H71.2269V11.512ZM88.7976 17.208C87.4216 17.208 86.243 16.9947 85.2616 16.568C84.291 16.1307 83.5443 15.512 83.0216 14.712C82.5096 13.912 82.2536 12.952 82.2536 11.832C82.2536 10.7013 82.5096 9.736 83.0216 8.936C83.5443 8.136 84.291 7.52267 85.2616 7.096C86.243 6.65867 87.4216 6.44 88.7976 6.44C90.1843 6.44 91.363 6.65867 92.3336 7.096C93.3043 7.52267 94.0456 8.136 94.5576 8.936C95.0803 9.736 95.3416 10.7013 95.3416 11.832C95.3416 12.952 95.0803 13.912 94.5576 14.712C94.0456 15.512 93.3043 16.1307 92.3336 16.568C91.363 16.9947 90.1843 17.208 88.7976 17.208ZM88.7976 15.368C89.651 15.368 90.3976 15.24 91.0376 14.984C91.6883 14.728 92.195 14.3387 92.5576 13.816C92.931 13.2933 93.1176 12.632 93.1176 11.832C93.1176 11.032 92.931 10.3707 92.5576 9.848C92.195 9.32533 91.6883 8.936 91.0376 8.68C90.3976 8.41333 89.651 8.28 88.7976 8.28C87.955 8.28 87.203 8.41333 86.5416 8.68C85.8803 8.936 85.363 9.32533 84.9896 9.848C84.6163 10.3707 84.4296 11.032 84.4296 11.832C84.4296 12.632 84.6163 13.2933 84.9896 13.816C85.363 14.3387 85.8803 14.728 86.5416 14.984C87.203 15.24 87.955 15.368 88.7976 15.368ZM99.5789 13.64V11.944H104.315C104.88 11.944 105.328 11.7947 105.659 11.496C105.99 11.1867 106.155 10.76 106.155 10.216C106.155 9.65067 105.99 9.21867 105.659 8.92C105.328 8.62133 104.88 8.472 104.315 8.472H99.8349V17H97.7069V6.648H104.123C104.699 6.648 105.238 6.71733 105.739 6.856C106.251 6.99467 106.694 7.208 107.067 7.496C107.451 7.784 107.75 8.152 107.963 8.6C108.176 9.048 108.283 9.58667 108.283 10.216C108.283 10.8347 108.176 11.3627 107.963 11.8C107.75 12.2373 107.451 12.5947 107.067 12.872C106.694 13.1387 106.251 13.336 105.739 13.464C105.238 13.5813 104.699 13.64 104.123 13.64H99.5789ZM112.734 12.68V15.224H120.718V17H110.606V6.648H120.702V8.424H112.734V11H119.262V12.68H112.734ZM123.223 17V6.648H130.247C131.047 6.648 131.74 6.76 132.327 6.984C132.924 7.19733 133.388 7.53867 133.719 8.008C134.049 8.46667 134.215 9.05867 134.215 9.784C134.215 10.2747 134.129 10.6907 133.959 11.032C133.788 11.3733 133.548 11.6507 133.239 11.864C132.94 12.0773 132.593 12.2427 132.199 12.36C131.804 12.4667 131.383 12.536 130.935 12.568L130.711 12.44C131.457 12.4507 132.071 12.5147 132.551 12.632C133.031 12.7387 133.388 12.9413 133.623 13.24C133.868 13.528 133.991 13.96 133.991 14.536V17H131.863V14.68C131.863 14.2853 131.793 13.9813 131.655 13.768C131.516 13.544 131.265 13.3893 130.903 13.304C130.551 13.2187 130.039 13.176 129.367 13.176H125.351V17H123.223ZM125.351 11.512H130.247C130.844 11.512 131.297 11.368 131.607 11.08C131.927 10.792 132.087 10.4027 132.087 9.912C132.087 9.44267 131.927 9.08533 131.607 8.84C131.297 8.59467 130.844 8.472 130.247 8.472H125.351V11.512ZM135.849 6.648H146.761V8.424H135.849V6.648ZM140.249 8.2H142.377V17H140.249V8.2ZM159.088 6.648L154.544 13.736V17H152.4V13.736L147.856 6.648H150.32L154.144 12.84H152.864L156.624 6.648H159.088ZM62.152 26.648C63.3147 26.648 64.2853 26.7867 65.064 27.064C65.8427 27.3413 66.4613 27.72 66.92 28.2C67.3893 28.6693 67.72 29.2133 67.912 29.832C68.1147 30.4507 68.216 31.1013 68.216 31.784C68.216 32.4667 68.104 33.1227 67.88 33.752C67.6667 34.3813 67.32 34.9413 66.84 35.432C66.3707 35.912 65.7467 36.296 64.968 36.584C64.2 36.8613 63.2613 37 62.152 37H56.232V26.648H62.152ZM58.36 35.176H62.104C62.872 35.176 63.5067 35.0853 64.008 34.904C64.52 34.712 64.9253 34.456 65.224 34.136C65.5227 33.816 65.736 33.4533 65.864 33.048C65.992 32.6427 66.056 32.2213 66.056 31.784C66.056 31.3467 65.992 30.9307 65.864 30.536C65.736 30.1413 65.5227 29.7893 65.224 29.48C64.9253 29.1707 64.52 28.9253 64.008 28.744C63.5067 28.5627 62.872 28.472 62.104 28.472H58.36V35.176ZM72.7425 32.68V35.224H80.7265V37H70.6145V26.648H80.7105V28.424H72.7425V31H79.2705V32.68H72.7425ZM84.8474 34.744V32.968H91.6954V34.744H84.8474ZM82.2714 37L87.1354 26.648H89.4394L94.3514 37H92.0314L87.7754 27.672H88.7994L84.5754 37H82.2714ZM98.3044 26.648V35.224H105.184V37H96.1764V26.648H98.3044ZM109.609 32.68V35.224H117.593V37H107.481V26.648H117.577V28.424H109.609V31H116.137V32.68H109.609ZM120.098 37V26.648H127.122C127.922 26.648 128.615 26.76 129.202 26.984C129.799 27.1973 130.263 27.5387 130.594 28.008C130.924 28.4667 131.09 29.0587 131.09 29.784C131.09 30.2747 131.004 30.6907 130.834 31.032C130.663 31.3733 130.423 31.6507 130.114 31.864C129.815 32.0773 129.468 32.2427 129.074 32.36C128.679 32.4667 128.258 32.536 127.81 32.568L127.586 32.44C128.332 32.4507 128.946 32.5147 129.426 32.632C129.906 32.7387 130.263 32.9413 130.498 33.24C130.743 33.528 130.866 33.96 130.866 34.536V37H128.738V34.68C128.738 34.2853 128.668 33.9813 128.53 33.768C128.391 33.544 128.14 33.3893 127.778 33.304C127.426 33.2187 126.914 33.176 126.242 33.176H122.226V37H120.098ZM122.226 31.512H127.122C127.719 31.512 128.172 31.368 128.482 31.08C128.802 30.792 128.962 30.4027 128.962 29.912C128.962 29.4427 128.802 29.0853 128.482 28.84C128.172 28.5947 127.719 28.472 127.122 28.472H122.226V31.512Z" fill="black"/>
</svg>
