<svg width="200" height="37" viewBox="0 0 200 37" fill="none" xmlns="http://www.w3.org/2000/svg">
<path d="M22.0841 7.31818V33.5H18.4535L5.14522 14.2983H4.90233V33.5H0.952043V7.31818H4.60829L17.9293 26.5455H18.1722V7.31818H22.0841ZM33.6142 33.9347C32.3699 33.9347 31.2449 33.7045 30.2392 33.2443C29.2336 32.7756 28.4367 32.098 27.8486 31.2116C27.2691 30.3253 26.9793 29.2386 26.9793 27.9517C26.9793 26.8437 27.1924 25.9318 27.6185 25.2159C28.0446 24.5 28.6199 23.9332 29.3444 23.5156C30.0688 23.098 30.8785 22.7827 31.7733 22.5696C32.6682 22.3565 33.5802 22.1946 34.5091 22.0838C35.6853 21.9474 36.6398 21.8366 37.3728 21.7514C38.1057 21.6577 38.6384 21.5085 38.9708 21.304C39.3032 21.0994 39.4694 20.767 39.4694 20.3068V20.2173C39.4694 19.1009 39.154 18.2358 38.5233 17.6222C37.9012 17.0085 36.9722 16.7017 35.7364 16.7017C34.4495 16.7017 33.4353 16.9872 32.6938 17.5582C31.9608 18.1207 31.4537 18.7472 31.1725 19.4375L27.5802 18.6193C28.0063 17.4261 28.6285 16.4631 29.4466 15.7301C30.2733 14.9886 31.2236 14.4517 32.2975 14.1193C33.3713 13.7784 34.5006 13.608 35.6853 13.608C36.4694 13.608 37.3003 13.7017 38.1782 13.8892C39.0645 14.0682 39.8912 14.4006 40.6583 14.8864C41.4338 15.3722 42.0688 16.0668 42.5631 16.9702C43.0574 17.8651 43.3046 19.0284 43.3046 20.4602V33.5H39.5716V30.8153H39.4182C39.1711 31.3097 38.8003 31.7955 38.306 32.2727C37.8117 32.75 37.1767 33.1463 36.4012 33.4616C35.6256 33.777 34.6966 33.9347 33.6142 33.9347ZM34.4452 30.8665C35.502 30.8665 36.4054 30.6577 37.1554 30.2401C37.914 29.8224 38.4892 29.277 38.8813 28.6037C39.2819 27.9219 39.4821 27.1932 39.4821 26.4176V23.8864C39.3458 24.0227 39.0816 24.1506 38.6895 24.2699C38.306 24.3807 37.8671 24.4787 37.3728 24.5639C36.8785 24.6406 36.3969 24.7131 35.9282 24.7812C35.4594 24.8409 35.0674 24.892 34.752 24.9347C34.0106 25.0284 33.333 25.1861 32.7194 25.4077C32.1142 25.6293 31.6285 25.9489 31.262 26.3665C30.904 26.7756 30.725 27.321 30.725 28.0028C30.725 28.9489 31.0745 29.6648 31.7733 30.1506C32.4722 30.6278 33.3628 30.8665 34.4452 30.8665ZM48.7559 33.5V13.8636H52.4249V17.0597H52.6678C53.0769 15.9773 53.7459 15.1335 54.6749 14.5284C55.6039 13.9148 56.7161 13.608 58.0115 13.608C59.324 13.608 60.4235 13.9148 61.3098 14.5284C62.2047 15.142 62.8652 15.9858 63.2914 17.0597H63.4959C63.9647 16.0114 64.7104 15.1761 65.7331 14.554C66.7559 13.9233 67.9746 13.608 69.3894 13.608C71.1706 13.608 72.6237 14.1662 73.7487 15.2827C74.8823 16.3991 75.449 18.0824 75.449 20.3324V33.5H71.6266V20.6903C71.6266 19.3608 71.2644 18.3977 70.5399 17.8011C69.8155 17.2045 68.9505 16.9062 67.9448 16.9062C66.7005 16.9062 65.7331 17.2898 65.0428 18.0568C64.3524 18.8153 64.0073 19.7912 64.0073 20.9844V33.5H60.1976V20.4474C60.1976 19.3821 59.8652 18.5256 59.2005 17.8778C58.5357 17.2301 57.6706 16.9062 56.6053 16.9062C55.8809 16.9062 55.2118 17.098 54.5982 17.4815C53.9931 17.8565 53.503 18.3807 53.128 19.054C52.7615 19.7273 52.5783 20.5071 52.5783 21.3935V33.5H48.7559ZM86.6467 33.9347C85.4024 33.9347 84.2774 33.7045 83.2717 33.2443C82.2661 32.7756 81.4692 32.098 80.8811 31.2116C80.3016 30.3253 80.0118 29.2386 80.0118 27.9517C80.0118 26.8437 80.2249 25.9318 80.651 25.2159C81.0771 24.5 81.6524 23.9332 82.3769 23.5156C83.1013 23.098 83.911 22.7827 84.8058 22.5696C85.7007 22.3565 86.6127 22.1946 87.5416 22.0838C88.7178 21.9474 89.6723 21.8366 90.4053 21.7514C91.1382 21.6577 91.6709 21.5085 92.0033 21.304C92.3357 21.0994 92.5019 20.767 92.5019 20.3068V20.2173C92.5019 19.1009 92.1865 18.2358 91.5558 17.6222C90.9337 17.0085 90.0047 16.7017 88.7689 16.7017C87.482 16.7017 86.4678 16.9872 85.7263 17.5582C84.9933 18.1207 84.4862 18.7472 84.205 19.4375L80.6127 18.6193C81.0388 17.4261 81.661 16.4631 82.4791 15.7301C83.3058 14.9886 84.2561 14.4517 85.33 14.1193C86.4038 13.7784 87.5331 13.608 88.7178 13.608C89.5019 13.608 90.3328 13.7017 91.2107 13.8892C92.097 14.0682 92.9237 14.4006 93.6908 14.8864C94.4663 15.3722 95.1013 16.0668 95.5956 16.9702C96.0899 17.8651 96.3371 19.0284 96.3371 20.4602V33.5H92.6041V30.8153H92.4507C92.2036 31.3097 91.8328 31.7955 91.3385 32.2727C90.8442 32.75 90.2092 33.1463 89.4337 33.4616C88.6581 33.777 87.7291 33.9347 86.6467 33.9347ZM87.4777 30.8665C88.5345 30.8665 89.4379 30.6577 90.1879 30.2401C90.9465 29.8224 91.5217 29.277 91.9138 28.6037C92.3144 27.9219 92.5146 27.1932 92.5146 26.4176V23.8864C92.3783 24.0227 92.1141 24.1506 91.722 24.2699C91.3385 24.3807 90.8996 24.4787 90.4053 24.5639C89.911 24.6406 89.4294 24.7131 88.9607 24.7812C88.4919 24.8409 88.0999 24.892 87.7845 24.9347C87.0431 25.0284 86.3655 25.1861 85.7519 25.4077C85.1467 25.6293 84.661 25.9489 84.2945 26.3665C83.9365 26.7756 83.7575 27.321 83.7575 28.0028C83.7575 28.9489 84.107 29.6648 84.8058 30.1506C85.5047 30.6278 86.3953 30.8665 87.4777 30.8665ZM116.503 18.6577L113.038 19.2713C112.893 18.8281 112.663 18.4062 112.348 18.0057C112.041 17.6051 111.624 17.277 111.095 17.0213C110.567 16.7656 109.906 16.6378 109.114 16.6378C108.031 16.6378 107.128 16.8807 106.403 17.3665C105.679 17.8437 105.317 18.4616 105.317 19.2202C105.317 19.8764 105.56 20.4048 106.045 20.8054C106.531 21.206 107.315 21.5341 108.398 21.7898L111.517 22.5057C113.324 22.9233 114.67 23.5668 115.557 24.4361C116.443 25.3054 116.886 26.4347 116.886 27.8239C116.886 29 116.545 30.0483 115.864 30.9688C115.19 31.8807 114.249 32.5966 113.038 33.1165C111.837 33.6364 110.443 33.8963 108.858 33.8963C106.659 33.8963 104.865 33.4276 103.476 32.4901C102.087 31.544 101.234 30.2017 100.919 28.4631L104.614 27.9006C104.844 28.8636 105.317 29.5923 106.033 30.0866C106.749 30.5724 107.682 30.8153 108.832 30.8153C110.085 30.8153 111.087 30.5554 111.837 30.0355C112.587 29.5071 112.962 28.8636 112.962 28.1051C112.962 27.4915 112.732 26.9759 112.271 26.5582C111.82 26.1406 111.125 25.8253 110.188 25.6122L106.864 24.8835C105.031 24.4659 103.676 23.8011 102.798 22.8892C101.929 21.9773 101.494 20.8224 101.494 19.4247C101.494 18.2656 101.818 17.2514 102.466 16.3821C103.114 15.5128 104.009 14.8352 105.151 14.3494C106.293 13.8551 107.601 13.608 109.075 13.608C111.197 13.608 112.868 14.0682 114.087 14.9886C115.305 15.9006 116.111 17.1236 116.503 18.6577ZM130.615 13.8636V16.9318H119.889V13.8636H130.615ZM122.766 9.15909H126.588V27.7344C126.588 28.4759 126.699 29.0341 126.921 29.4091C127.142 29.7756 127.428 30.027 127.777 30.1634C128.135 30.2912 128.523 30.3551 128.941 30.3551C129.247 30.3551 129.516 30.3338 129.746 30.2912C129.976 30.2486 130.155 30.2145 130.283 30.1889L130.973 33.3466C130.752 33.4318 130.436 33.517 130.027 33.6023C129.618 33.696 129.107 33.7472 128.493 33.7557C127.487 33.7727 126.55 33.5938 125.681 33.2188C124.811 32.8438 124.108 32.2642 123.571 31.4801C123.034 30.696 122.766 29.7116 122.766 28.527V9.15909ZM143.456 33.8963C141.521 33.8963 139.855 33.483 138.457 32.6562C137.068 31.821 135.994 30.6491 135.236 29.1406C134.486 27.6236 134.111 25.8466 134.111 23.8097C134.111 21.7983 134.486 20.0256 135.236 18.4915C135.994 16.9574 137.051 15.7599 138.406 14.8991C139.77 14.0384 141.363 13.608 143.187 13.608C144.295 13.608 145.369 13.7912 146.409 14.1577C147.449 14.5241 148.382 15.0994 149.209 15.8835C150.035 16.6676 150.687 17.6861 151.165 18.9389C151.642 20.1832 151.881 21.696 151.881 23.4773V24.8324H136.271V21.9688H148.135C148.135 20.9631 147.93 20.0724 147.521 19.2969C147.112 18.5128 146.537 17.8949 145.795 17.4432C145.062 16.9915 144.202 16.7656 143.213 16.7656C142.139 16.7656 141.202 17.0298 140.4 17.5582C139.608 18.0781 138.994 18.7599 138.559 19.6037C138.133 20.4389 137.92 21.3466 137.92 22.3267V24.5639C137.92 25.8764 138.15 26.9929 138.611 27.9134C139.079 28.8338 139.731 29.5369 140.567 30.0227C141.402 30.5 142.378 30.7386 143.494 30.7386C144.219 30.7386 144.879 30.6364 145.476 30.4318C146.072 30.2187 146.588 29.9034 147.023 29.4858C147.457 29.0682 147.79 28.5526 148.02 27.9389L151.638 28.5909C151.348 29.6562 150.828 30.5895 150.078 31.3906C149.336 32.1832 148.403 32.8011 147.278 33.2443C146.162 33.679 144.888 33.8963 143.456 33.8963ZM163.799 36.02H199.799V0.0199997H163.799V36.02Z" fill="#0C1421"/>
</svg>
