<svg width="16" height="12" viewBox="0 0 16 12" fill="none" xmlns="http://www.w3.org/2000/svg">
<path fill-rule="evenodd" clip-rule="evenodd" d="M4.42253 0.921054C6.80515 0.734649 9.19869 0.734649 11.5813 0.921054L13.1818 1.04627C14.0733 1.11601 14.8026 1.78415 14.95 2.66613C15.3187 4.87292 15.3187 7.12559 14.95 9.33237C14.8026 10.2144 14.0733 10.8825 13.1818 10.9522L11.5813 11.0775C9.19869 11.2639 6.80515 11.2639 4.42253 11.0775L2.82203 10.9522C1.93055 10.8825 1.20125 10.2144 1.05388 9.33237C0.685164 7.12559 0.685164 4.87292 1.05388 2.66613C1.20125 1.78415 1.93055 1.11601 2.82203 1.04627L4.42253 0.921054ZM6.57333 7.76364V4.23487C6.57333 4.0683 6.75504 3.96542 6.89786 4.05112L9.83851 5.81551C9.97723 5.89874 9.97723 6.09977 9.83851 6.183L6.89786 7.94739C6.75504 8.03309 6.57333 7.93021 6.57333 7.76364Z" fill="#29CDB5"/>
</svg>
