<svg width="1300" height="431" viewBox="0 0 1300 431" fill="none" xmlns="http://www.w3.org/2000/svg">
<g clip-path="url(#clip0_605_2614)">
<rect y="0.759766" width="1300" height="430" rx="10" fill="#EFFFF9"/>
<g clip-path="url(#clip1_605_2614)">
<path d="M-8.5775 348.627C-1.12881 339.577 13.5971 337.699 23.0763 344.593C27.984 348.157 31.3836 353.552 36.4671 356.864C43.6038 361.514 52.8403 361.304 61.2428 359.879C69.6452 358.454 78.0267 355.975 86.5164 356.665C95.0097 357.352 103.952 362.252 106.037 370.513C108.057 378.505 103.202 387.07 105.315 395.04C108.748 408.002 127.655 411.213 132.241 423.814C134.556 430.175 132.331 437.633 127.686 442.559C123.041 447.484 116.342 450.103 109.619 450.919C101.69 451.882 93.2265 450.634 86.0363 454.11C74.3352 459.775 71.4345 474.761 64.438 485.716C57.8508 496.036 46.0523 503.439 33.8263 502.778C21.6003 502.116 9.94704 492.165 9.23345 479.94C8.84626 473.341 11.3385 466.243 8.30984 460.362C4.55233 453.065 -5.14286 451.991 -13.1944 450.407C-19.8732 449.093 -26.5507 446.702 -31.5693 442.108C-36.5917 437.51 -39.6715 430.383 -38.0814 423.763C-34.213 407.616 -9.18215 404.885 -8.27097 387.026C-7.56154 373.236 -19.664 362.099 -8.5775 348.627Z" stroke="#FF5722" stroke-width="0.399481" stroke-miterlimit="10"/>
<path d="M-5.85428 352.064C1.19714 343.497 15.1415 341.717 24.1162 348.244C28.7602 351.622 31.9807 356.726 36.7932 359.859C43.5522 364.264 52.2953 364.061 60.2472 362.712C68.1991 361.364 76.135 359.018 84.1756 359.668C92.2161 360.318 100.679 364.957 102.657 372.776C104.567 380.344 99.9736 388.451 101.969 395.999C105.219 408.268 123.12 411.31 127.463 423.241C129.655 429.262 127.546 436.322 123.148 440.99C118.754 445.655 112.407 448.131 106.048 448.906C98.5436 449.819 90.5301 448.633 83.7206 451.929C72.6426 457.291 69.8956 471.48 63.2755 481.85C57.0391 491.622 45.8694 498.632 34.2958 498.006C22.7186 497.385 11.6898 487.96 11.0155 476.386C10.6541 470.136 13.0069 463.414 10.1428 457.854C6.58514 450.948 -2.59288 449.928 -10.2171 448.43C-16.5404 447.184 -22.8613 444.921 -27.615 440.574C-32.3725 436.224 -35.2829 429.474 -33.7799 423.206C-30.1167 407.918 -6.41654 405.334 -5.55799 388.429C-4.89431 375.371 -16.3484 364.828 -5.85044 352.068L-5.85428 352.064Z" stroke="#FF5722" stroke-width="0.383502" stroke-linecap="round" stroke-linejoin="round"/>
<path d="M-3.12869 355.503C3.52547 347.418 16.6845 345.741 25.1545 351.894C29.5386 355.08 32.5764 359.898 37.118 362.86C43.4953 367.016 51.7489 366.822 59.2541 365.554C66.7631 364.283 74.2495 362.066 81.8373 362.68C89.4251 363.294 97.4153 367.671 99.2797 375.055C101.083 382.196 96.7481 389.85 98.6337 396.974C101.704 408.553 118.596 411.423 122.692 422.681C124.764 428.366 122.771 435.028 118.621 439.431C114.47 443.834 108.486 446.172 102.48 446.901C95.3965 447.762 87.8326 446.646 81.4112 449.753C70.9562 454.813 68.3629 468.204 62.1117 477.99C56.226 487.212 45.6889 493.825 34.7602 493.236C23.8353 492.651 13.4235 483.752 12.7885 472.829C12.4453 466.929 14.6664 460.59 11.9628 455.34C8.60496 448.818 -0.0557521 447.86 -7.25257 446.447C-13.2203 445.277 -19.1846 443.135 -23.6698 439.031C-28.1589 434.924 -30.9109 428.556 -29.4914 422.643C-26.0333 408.215 -3.67131 405.778 -2.85417 389.823C-2.22487 377.5 -13.038 367.551 -3.12854 355.51L-3.12869 355.503Z" stroke="#FF5722" stroke-width="0.367523" stroke-linecap="round" stroke-linejoin="round"/>
<path d="M-0.402895 358.941C5.854 351.339 18.2314 349.759 26.1932 355.55C30.3174 358.545 33.1724 363.077 37.443 365.859C43.4423 369.763 51.2029 369.59 58.2574 368.392C65.3158 367.197 72.3566 365.113 79.4953 365.687C86.6303 366.265 94.1446 370.384 95.8984 377.322C97.5988 384.039 93.515 391.232 95.2904 397.932C98.1737 408.822 114.064 411.521 117.917 422.109C119.862 427.457 117.993 433.721 114.09 437.859C110.186 441.998 104.557 444.197 98.9122 444.881C92.253 445.692 85.1387 444.639 79.0979 447.565C69.2661 452.322 66.8264 464.915 60.9479 474.122C55.413 482.794 45.5009 489.011 35.2284 488.461C24.9521 487.908 15.1649 479.544 14.5692 469.271C14.2482 463.725 16.3373 457.762 13.7907 452.825C10.6327 446.694 2.48913 445.79 -4.27661 444.459C-9.88883 443.357 -15.5002 441.348 -19.7169 437.487C-23.9374 433.623 -26.5237 427.636 -25.1913 422.076C-21.9385 408.506 -0.910959 406.212 -0.14276 391.208C0.448331 379.616 -9.72025 370.257 -0.402895 358.941Z" stroke="#FF5722" stroke-width="0.351543" stroke-linecap="round" stroke-linejoin="round"/>
<path d="M2.31909 362.379C8.18241 355.256 19.7708 353.782 27.2318 359.202C31.0923 362.011 33.7683 366.252 37.7717 368.859C43.3933 372.518 50.6604 372.351 57.2683 371.233C63.8762 370.115 70.475 368.161 77.1572 368.702C83.8395 369.244 90.8776 373.097 92.5173 379.601C94.1076 385.894 90.2859 392.63 91.9474 398.903C94.6513 409.103 109.532 411.63 113.138 421.544C114.959 426.552 113.207 432.419 109.551 436.3C105.899 440.177 100.624 442.237 95.3369 442.881C89.0986 443.637 82.4339 442.655 76.7775 445.396C67.5687 449.851 65.2827 461.646 59.7807 470.269C54.5965 478.392 45.3132 484.215 35.6893 483.698C26.0655 483.181 16.8991 475.347 16.3351 465.726C16.0323 460.529 17.9933 454.945 15.6073 450.318C12.6492 444.579 5.02281 443.728 -1.31554 442.483C-6.57231 441.449 -11.8271 439.568 -15.7752 435.951C-19.727 432.338 -22.1477 426.724 -20.9025 421.516C-17.8549 408.806 1.84204 406.659 2.55761 392.609C3.11064 381.756 -6.41336 372.987 2.31171 362.386L2.31909 362.379Z" stroke="#FF5722" stroke-width="0.330238" stroke-linecap="round" stroke-linejoin="round"/>
<path d="M5.04514 365.82C10.5112 359.18 21.3142 357.801 28.2744 362.858C31.875 365.476 34.3682 369.431 38.0969 371.862C43.3369 375.273 50.1108 375.119 56.2794 374.074C62.4404 373.029 68.5936 371.208 74.8269 371.717C81.0564 372.222 87.6185 375.818 89.1514 381.879C90.6354 387.745 87.0721 394.027 88.6197 399.873C91.1402 409.38 105.012 411.742 108.379 420.983C110.076 425.651 108.445 431.123 105.036 434.739C101.627 438.356 96.711 440.273 91.7806 440.875C85.9633 441.586 79.7557 440.666 74.4797 443.219C65.8941 447.371 63.7656 458.372 58.6324 466.411C53.7989 473.985 45.1445 479.416 36.1692 478.931C27.1978 478.45 18.6483 471.142 18.1275 462.175C17.8468 457.332 19.6683 452.124 17.4506 447.813C14.6922 442.459 7.58315 441.669 1.67218 440.51C-3.22912 439.545 -8.12722 437.792 -11.8105 434.422C-15.4938 431.052 -17.7563 425.819 -16.5907 420.963C-13.752 409.116 4.61417 407.109 5.28079 394.009C5.7956 383.887 -3.08366 375.716 5.05282 365.828L5.04514 365.82Z" stroke="#FF5722" stroke-width="0.314258" stroke-linecap="round" stroke-linejoin="round"/>
<path d="M7.76724 369.262C12.836 363.104 22.8574 361.824 29.3095 366.517C32.6501 368.945 34.9606 372.613 38.4221 374.869C43.2804 378.031 49.5648 377.888 55.2828 376.919C61.0009 375.95 66.7008 374.262 72.4851 374.731C78.2655 375.197 84.3477 378.531 85.7703 384.153C87.1441 389.595 83.843 395.421 85.2804 400.843C87.614 409.661 100.484 411.85 103.604 420.419C105.178 424.746 103.667 429.824 100.505 433.175C97.3429 436.527 92.7862 438.309 88.2126 438.863C82.8161 439.52 77.0582 438.67 72.1666 441.038C64.2042 444.896 62.2292 455.091 57.4687 462.543C52.9859 469.567 44.9565 474.601 36.6375 474.156C28.3146 473.707 20.3898 466.933 19.9044 458.614C19.6419 454.121 21.3354 449.292 19.2746 445.294C16.7161 440.331 10.1205 439.599 4.6406 438.522C0.0986007 437.629 -4.44668 436.001 -7.86146 432.874C-11.2762 429.748 -13.3729 424.896 -12.2945 420.392C-9.66098 409.403 7.37083 407.547 7.99221 395.393C8.47264 386.008 0.234264 378.43 7.7823 369.262L7.76724 369.262Z" stroke="#FF5722" stroke-width="0.298279" stroke-linecap="round" stroke-linejoin="round"/>
<path d="M10.4929 372.7C15.1645 367.025 24.4006 365.847 30.3479 370.166C33.4286 372.403 35.5563 375.785 38.7468 377.862C43.2273 380.779 49.0146 380.645 54.2897 379.753C59.5572 378.861 64.8191 377.306 70.143 377.739C75.4707 378.168 81.0769 381.244 82.3852 386.424C83.6526 391.439 80.6061 396.808 81.9297 401.81C84.0839 409.939 95.945 411.956 98.818 419.859C100.272 423.849 98.8733 428.526 95.9624 431.616C93.0515 434.706 88.8461 436.345 84.6296 436.859C79.6578 437.466 74.3494 436.678 69.8383 438.859C62.499 442.414 60.6778 451.811 56.2899 458.683C52.1579 465.157 44.7573 469.798 37.0868 469.386C29.4164 468.973 22.1124 462.729 21.6626 455.064C21.4222 450.925 22.9838 446.472 21.0835 442.784C18.7248 438.205 12.6465 437.534 7.59399 436.542C3.40376 435.721 -0.781166 434.218 -3.93495 431.335C-7.0849 428.456 -9.0196 423.981 -8.02089 419.829C-5.59255 409.7 10.1048 407.987 10.6811 396.787C11.1233 388.133 3.53333 381.149 10.4854 372.7L10.4929 372.7Z" stroke="#FF5722" stroke-width="0.2823" stroke-linecap="round" stroke-linejoin="round"/>
<path d="M13.2146 376.138C17.4889 370.945 25.9434 369.866 31.3825 373.822C34.1995 375.872 36.1482 378.964 39.0678 380.869C43.1667 383.537 48.4683 383.417 53.289 382.598C58.1097 381.779 62.9223 380.361 67.7971 380.754C72.672 381.147 77.8059 383.961 79.0038 388.702C80.1647 393.29 77.3767 398.205 78.5864 402.781C80.5536 410.219 91.413 412.064 94.0429 419.298C95.3736 422.948 94.0949 427.23 91.4275 430.059C88.76 432.889 84.9173 434.389 81.0615 434.857C76.5106 435.411 71.6519 434.694 67.5251 436.689C60.8089 439.942 59.1413 448.541 55.1299 454.829C51.3486 460.754 44.5768 465.003 37.5588 464.626C30.5408 464.249 23.8537 458.531 23.4432 451.518C23.2211 447.729 24.6509 443.658 22.9112 440.28C20.7524 436.092 15.1913 435.476 10.5698 434.565C6.73505 433.813 2.90308 432.442 0.0215147 429.798C-2.8599 427.162 -4.62883 423.069 -3.7173 419.268C-1.49417 409.999 12.8725 408.433 13.3923 398.183C13.7965 390.268 6.85113 383.874 13.2146 376.138Z" stroke="#FF5722" stroke-width="0.266321" stroke-linecap="round" stroke-linejoin="round"/>
<path d="M15.9416 379.576C19.8186 374.866 27.4878 373.889 32.4261 377.475C34.9794 379.33 36.7491 382.139 39.3978 383.865C43.1149 386.285 47.9234 386.178 52.3011 385.436C56.6788 384.693 61.0418 383.405 65.4639 383.762C69.886 384.118 74.5401 386.67 75.6276 390.973C76.6784 395.138 74.1525 399.595 75.2521 403.747C77.0398 410.496 86.89 412.169 89.273 418.73C90.4765 422.043 89.3179 425.924 86.9014 428.492C84.4811 431.056 80.9935 432.418 77.4948 432.845C73.3647 433.345 68.9594 432.694 65.2132 434.509C59.1202 437.459 57.6101 445.264 53.9675 450.969C50.537 456.344 44.394 460.2 38.0246 459.855C31.6552 459.511 25.589 454.331 25.2215 447.964C25.0215 444.529 26.3155 440.83 24.7404 437.773C22.7852 433.973 17.7375 433.414 13.5435 432.589C10.0641 431.905 6.58884 430.663 3.97211 428.266C1.35922 425.873 -0.243931 422.161 0.580411 418.712C2.59465 410.306 15.6269 408.883 16.1053 399.584C16.4712 392.4 10.1706 386.603 15.9456 379.587L15.9416 379.576Z" stroke="#FF5722" stroke-width="0.250341" stroke-linecap="round" stroke-linejoin="round"/>
<path d="M18.664 383.014C22.1474 378.782 29.0313 377.907 33.465 381.127C35.7583 382.791 37.3454 385.314 39.723 386.86C43.0624 389.035 47.3774 388.934 51.3046 388.269C55.2318 387.603 59.1529 386.444 63.1222 386.765C67.0916 387.085 71.2733 389.375 72.2465 393.236C73.1909 396.973 70.9235 400.977 71.9091 404.702C73.5135 410.758 82.3547 412.267 84.4983 418.153C85.5782 421.127 84.5399 424.613 82.3705 426.916C80.2012 429.22 77.0687 430.442 73.9232 430.825C70.2178 431.275 66.2583 430.691 62.9002 432.317C57.4302 434.965 56.0738 441.972 52.8039 447.088C49.724 451.915 44.2061 455.373 38.4929 455.069C32.7759 454.76 27.3267 450.107 26.9985 444.391C26.8167 441.306 27.9827 437.986 26.5682 435.238C24.809 431.826 20.2823 431.325 16.5156 430.586C13.3918 429.97 10.2731 428.856 7.92125 426.707C5.57319 424.561 4.13199 421.226 4.87667 418.129C6.68572 410.582 18.3873 409.306 18.8129 400.953C19.1445 394.505 13.4848 389.302 18.6675 383.002L18.664 383.014Z" stroke="#FF5722" stroke-width="0.234362" stroke-linecap="round" stroke-linejoin="round"/>
<path d="M21.3938 386.456C24.4799 382.707 30.5822 381.93 34.5039 384.783C36.5336 386.261 37.9454 388.497 40.052 389.864C43.0097 391.79 46.8353 391.699 50.3157 391.114C53.7962 390.529 57.2679 389.5 60.7844 389.784C64.301 390.068 68.0067 392.1 68.8695 395.523C69.7075 398.832 67.6947 402.379 68.5702 405.681C69.9915 411.051 77.8233 412.38 79.7237 417.597C80.684 420.234 79.7621 423.322 77.8362 425.364C75.9103 427.407 73.1366 428.487 70.3557 428.828C67.0712 429.225 63.565 428.707 60.5876 430.152C55.7407 432.497 54.538 438.707 51.6407 443.243C48.9116 447.52 44.0262 450.582 38.9616 450.31C33.897 450.037 29.0686 445.914 28.776 440.853C28.6163 438.121 29.6467 435.181 28.3928 432.743C26.8372 429.718 22.824 429.274 19.4847 428.621C16.7201 428.077 13.9543 427.089 11.8709 425.182C9.79139 423.28 8.51597 420.325 9.17347 417.581C10.7773 410.893 21.1444 409.76 21.5213 402.366C21.8109 396.653 16.7995 392.036 21.3938 386.456Z" stroke="#FF5722" stroke-width="0.218383" stroke-linecap="round" stroke-linejoin="round"/>
<path d="M24.1155 389.894C26.8043 386.627 32.1175 385.949 35.5422 388.435C37.3119 389.722 38.541 391.672 40.3729 392.863C42.949 394.541 46.2852 394.468 49.3149 393.952C52.3447 393.436 55.3746 392.543 58.4384 392.791C61.5022 393.039 64.7317 394.806 65.4841 397.79C66.212 400.676 64.4613 403.766 65.223 406.647C66.461 411.324 73.2874 412.484 74.9448 417.032C75.7815 419.329 74.976 422.019 73.3011 423.801C71.6224 425.578 69.2076 426.523 66.78 426.819C63.9201 427.166 60.8636 426.718 58.2704 427.971C54.0466 430.014 52.9976 435.426 50.4731 439.382C48.0947 443.11 43.8381 445.779 39.4259 445.542C35.0138 445.306 30.8062 441.713 30.549 437.299C30.4076 434.917 31.3098 432.357 30.2166 430.235C28.861 427.602 25.3574 427.212 22.4567 426.641C20.0439 426.169 17.6346 425.301 15.8199 423.646C14.0089 421.987 12.8955 419.417 13.4659 417.025C14.8645 411.196 23.901 410.21 24.2289 403.766C24.4842 398.788 20.1136 394.765 24.1156 389.901L24.1155 389.894Z" stroke="#FF5722" stroke-width="0.202404" stroke-linecap="round" stroke-linejoin="round"/>
<path d="M26.8335 393.335C29.1251 390.551 33.6567 389.972 36.5731 392.095C38.0829 393.191 39.1292 394.854 40.6939 395.87C42.8922 397.304 45.735 397.236 48.3181 396.8C50.9049 396.361 53.4816 395.602 56.0963 395.81C58.7073 396.021 61.4609 397.53 62.1065 400.071C62.728 402.53 61.2358 405.167 61.8835 407.621C62.9421 411.608 68.7593 412.597 70.1699 416.479C70.883 418.435 70.1978 420.731 68.77 422.248C67.3423 423.764 65.2788 424.566 63.2119 424.818C60.7692 425.115 58.1698 424.73 55.9572 425.802C52.3565 427.542 51.4611 432.156 49.313 435.529C47.2854 438.707 43.6577 440.983 39.8941 440.779C36.1305 440.575 32.5437 437.512 32.3258 433.749C32.2101 431.717 32.9729 429.532 32.0405 427.727C30.8809 425.482 27.8983 425.15 25.425 424.664C23.3677 424.26 21.315 423.521 19.7688 422.109C18.2227 420.697 17.2749 418.501 17.7619 416.465C18.9554 411.495 26.6537 410.656 26.9363 405.158C27.1534 400.912 23.4275 397.487 26.8411 393.343L26.8335 393.335Z" stroke="#FF5722" stroke-width="0.181098" stroke-linecap="round" stroke-linejoin="round"/>
<path d="M29.5588 396.773C31.4532 394.472 35.2032 393.99 37.6151 395.747C38.8649 396.653 39.7285 398.029 41.0222 398.866C42.8388 400.051 45.1884 399.996 47.3247 399.634C49.461 399.271 51.5957 398.641 53.7576 398.813C55.9196 398.985 58.1971 400.235 58.7248 402.338C59.2361 404.374 58.0061 406.553 58.5399 408.58C59.4115 411.878 64.2269 412.694 65.3906 415.903C65.9766 417.523 65.4153 419.421 64.231 420.676C63.0503 421.928 61.3458 422.595 59.636 422.806C57.6179 423.053 55.4644 422.734 53.6323 423.618C50.6547 425.056 49.9168 428.875 48.1338 431.661C46.4569 434.289 43.4542 436.169 40.343 436.001C37.2318 435.833 34.2658 433.3 34.0872 430.188C33.9898 428.506 34.6245 426.7 33.8527 425.205C32.8967 423.348 30.4275 423.073 28.3816 422.673C26.6797 422.337 24.98 421.731 23.7024 420.562C22.4248 419.393 21.6428 417.578 22.0426 415.894C23.0272 411.787 29.3986 411.091 29.6286 406.547C29.8076 403.041 26.7263 400.205 29.5513 396.773L29.5588 396.773Z" stroke="#FF5722" stroke-width="0.165119" stroke-linecap="round" stroke-linejoin="round"/>
<path d="M32.2851 400.211C33.7822 398.392 36.7469 398.013 38.658 399.399C39.6442 400.118 40.3287 401.204 41.3515 401.87C42.7865 402.806 44.6466 402.761 46.3362 402.479C48.0258 402.197 49.7147 401.692 51.4202 401.832C53.1294 401.967 54.9271 402.956 55.3481 404.617C55.7529 406.225 54.7775 407.947 55.2012 409.551C55.8933 412.159 59.6959 412.807 60.6202 415.343C61.0864 416.625 60.6377 418.122 59.7044 419.116C58.7672 420.107 57.4215 420.631 56.0687 420.801C54.4715 420.995 52.7713 420.742 51.3236 421.441C48.9692 422.584 48.3849 425.598 46.9783 427.8C45.6521 429.879 43.2782 431.365 40.8194 431.233C38.3607 431.101 36.0155 429.099 35.8687 426.638C35.7933 425.31 36.2924 423.883 35.6812 422.698C34.9251 421.232 32.9731 421.011 31.3545 420.696C30.012 420.433 28.6651 419.951 27.656 419.026C26.6469 418.1 26.0232 416.666 26.3433 415.334C27.1227 412.086 32.1596 411.534 32.3406 407.94C32.4814 405.165 30.0486 402.923 32.2776 400.212L32.2851 400.211Z" stroke="#FF5722" stroke-width="0.14914" stroke-linecap="round" stroke-linejoin="round"/>
<path d="M35.007 403.649C36.1106 402.309 38.29 402.032 39.689 403.051C40.4152 403.579 40.917 404.379 41.6688 404.865C42.726 405.556 44.089 405.522 45.3354 405.309C46.5819 405.096 47.8178 404.732 49.0742 404.831C50.3306 404.931 51.656 405.658 51.9629 406.884C52.2613 408.064 51.5444 409.333 51.8579 410.513C52.3668 412.428 55.1639 412.908 55.8413 414.77C56.184 415.713 55.8556 416.816 55.1694 417.545C54.4832 418.274 53.4925 418.659 52.4967 418.781C51.3242 418.925 50.0698 418.739 49.0064 419.253C47.2752 420.094 46.8445 422.31 45.8106 423.931C44.8352 425.461 43.0901 426.554 41.2799 426.455C39.4698 426.355 37.7453 424.883 37.6417 423.076C37.5846 422.098 37.9517 421.047 37.5051 420.182C36.9487 419.101 35.5141 418.941 34.3229 418.712C33.3358 418.517 32.3456 418.164 31.6013 417.485C30.857 416.807 30.4028 415.75 30.6357 414.77C31.2099 412.381 34.9087 411.976 35.0483 409.333C35.1547 407.293 33.3628 405.644 35.0033 403.653L35.007 403.649Z" stroke="#FF5722" stroke-width="0.13316" stroke-linecap="round" stroke-linejoin="round"/>
</g>
<path d="M462.36 64.8613H457.754V76.3755H462.36V64.8613Z" fill="#FF5722"/>
<path d="M524.784 37.1046L521.527 40.3613L529.669 48.5031L532.926 45.2464L524.784 37.1046Z" fill="#FF5722"/>
<path d="M395.324 37.0883L387.184 45.2314L390.441 48.4876L398.581 40.3444L395.324 37.0883Z" fill="#FF5722"/>
<path d="M395.324 37.0883L387.184 45.2314L390.441 48.4876L398.581 40.3444L395.324 37.0883Z" fill="#FF5722"/>
<path d="M482.637 61.9995L478.152 63.0488L480.776 74.2602L485.26 73.2108L482.637 61.9995Z" fill="#FF5722"/>
<path d="M372.644 -6.29138L361.434 -3.66406L362.485 0.820098L373.695 -1.80722L372.644 -6.29138Z" fill="#FF5722"/>
<path d="M372.644 -6.29138L361.434 -3.66406L362.485 0.820098L373.695 -1.80722L372.644 -6.29138Z" fill="#FF5722"/>
<path d="M537.092 20.7125L534.664 24.626L544.448 30.6968L546.876 26.7834L537.092 20.7125Z" fill="#FF5722"/>
<path d="M411.053 50.2193L404.98 60.002L408.894 62.431L414.966 52.6484L411.053 50.2193Z" fill="#FF5722"/>
<path d="M411.053 50.2193L404.98 60.002L408.894 62.431L414.966 52.6484L411.053 50.2193Z" fill="#FF5722"/>
<path d="M495.113 57.7149L490.832 59.4141L495.08 70.116L499.361 68.4168L495.113 57.7149Z" fill="#FF5722"/>
<path d="M376.253 6.3858L365.551 10.6338L367.25 14.9145L377.952 10.6666L376.253 6.3858Z" fill="#FF5722"/>
<path d="M376.253 6.3858L365.551 10.6338L367.25 14.9145L377.952 10.6666L376.253 6.3858Z" fill="#FF5722"/>
<path d="M542.92 8.89881L541.094 13.127L551.664 17.6924L553.49 13.4643L542.92 8.89881Z" fill="#FF5722"/>
<path d="M422.579 56.6525L418.016 67.2236L422.244 69.0491L426.808 58.4779L422.579 56.6525Z" fill="#FF5722"/>
<path d="M422.579 56.6525L418.016 67.2236L422.244 69.0491L426.808 58.4779L422.579 56.6525Z" fill="#FF5722"/>
<path d="M512.91 47.5577L509.129 50.1875L515.703 59.6401L519.485 57.0102L512.91 47.5577Z" fill="#FF5722"/>
<path d="M385.484 24.6783L376.031 31.2529L378.661 35.034L388.114 28.4594L385.484 24.6783Z" fill="#FF5722"/>
<path d="M385.484 24.6783L376.031 31.2529L378.661 35.034L388.114 28.4594L385.484 24.6783Z" fill="#FF5722"/>
<path d="M442.029 63.0476L439.996 74.3809L444.529 75.1941L446.562 63.8608L442.029 63.0476Z" fill="#FF5722"/>
<path d="M442.029 63.0476L439.996 74.3809L444.529 75.1941L446.562 63.8608L442.029 63.0476Z" fill="#FF5722"/>
</g>
<defs>
<clipPath id="clip0_605_2614">
<rect y="0.759766" width="1300" height="430" rx="10" fill="white"/>
</clipPath>
<clipPath id="clip1_605_2614">
<rect width="154.509" height="163.793" fill="white" transform="translate(-70 412.161) rotate(-46.1374)"/>
</clipPath>
</defs>
</svg>
