<svg width="25" height="25" viewBox="0 0 25 25" fill="none" xmlns="http://www.w3.org/2000/svg">
<path d="M12.543 11.4C11.933 11.4 11.443 11.89 11.443 12.5C11.443 13.11 11.933 13.6 12.543 13.6C13.153 13.6 13.643 13.11 13.643 12.5C13.643 11.89 13.153 11.4 12.543 11.4ZM12.543 2.5C7.02297 2.5 2.54297 6.98 2.54297 12.5C2.54297 18.02 7.02297 22.5 12.543 22.5C18.063 22.5 22.543 18.02 22.543 12.5C22.543 6.98 18.063 2.5 12.543 2.5ZM14.733 14.69L6.54297 18.5L10.353 10.31L18.543 6.5L14.733 14.69Z" fill="#8F90A6"/>
</svg>
