<svg width="25" height="25" viewBox="0 0 25 25" fill="none" xmlns="http://www.w3.org/2000/svg">
<path fill-rule="evenodd" clip-rule="evenodd" d="M3.04297 5.5C3.2879 5.50003 3.52431 5.58996 3.70734 5.75272C3.89038 5.91547 4.00731 6.13975 4.03597 6.383L4.04297 6.5V13.5H11.043V8.5C11.043 8.25507 11.1329 8.01866 11.2957 7.83563C11.4584 7.65259 11.6827 7.53566 11.926 7.507L12.043 7.5H19.043C19.8082 7.49996 20.5445 7.79233 21.1012 8.31728C21.658 8.84224 21.9931 9.56011 22.038 10.324L22.043 10.5V18.5C22.0427 18.7549 21.9451 19 21.7701 19.1854C21.5952 19.3707 21.356 19.4822 21.1016 19.4972C20.8471 19.5121 20.5966 19.4293 20.4011 19.2657C20.2057 19.1021 20.0801 18.8701 20.05 18.617L20.043 18.5V15.5H4.04297V18.5C4.04269 18.7549 3.94509 19 3.77012 19.1854C3.59515 19.3707 3.35602 19.4822 3.10157 19.4972C2.84713 19.5121 2.59659 19.4293 2.40114 19.2657C2.20568 19.1021 2.08007 18.8701 2.04997 18.617L2.04297 18.5V6.5C2.04297 6.23478 2.14833 5.98043 2.33586 5.79289C2.5234 5.60536 2.77775 5.5 3.04297 5.5ZM19.043 9.5H13.043V13.5H20.043V10.5C20.043 10.2348 19.9376 9.98043 19.7501 9.79289C19.5625 9.60536 19.3082 9.5 19.043 9.5ZM7.54297 7.5C8.20601 7.5 8.84189 7.76339 9.31074 8.23223C9.77958 8.70107 10.043 9.33696 10.043 10C10.043 10.663 9.77958 11.2989 9.31074 11.7678C8.84189 12.2366 8.20601 12.5 7.54297 12.5C6.87993 12.5 6.24404 12.2366 5.7752 11.7678C5.30636 11.2989 5.04297 10.663 5.04297 10C5.04297 9.33696 5.30636 8.70107 5.7752 8.23223C6.24404 7.76339 6.87993 7.5 7.54297 7.5ZM7.54297 9.5C7.41036 9.5 7.28318 9.55268 7.18942 9.64645C7.09565 9.74021 7.04297 9.86739 7.04297 10C7.04297 10.1326 7.09565 10.2598 7.18942 10.3536C7.28318 10.4473 7.41036 10.5 7.54297 10.5C7.67558 10.5 7.80275 10.4473 7.89652 10.3536C7.99029 10.2598 8.04297 10.1326 8.04297 10C8.04297 9.86739 7.99029 9.74021 7.89652 9.64645C7.80275 9.55268 7.67558 9.5 7.54297 9.5Z" fill="#8F90A6"/>
</svg>
