<svg width="16" height="16" viewBox="0 0 16 16" fill="none" xmlns="http://www.w3.org/2000/svg">
<path d="M9.0013 5.33333H8.0013V8.66667L10.8546 10.36L11.3346 9.55333L9.0013 8.16667V5.33333ZM8.66797 2C7.07667 2 5.55055 2.63214 4.42533 3.75736C3.30011 4.88258 2.66797 6.4087 2.66797 8H0.667969L3.30797 10.6867L6.0013 8H4.0013C4.0013 6.76232 4.49297 5.57534 5.36814 4.70017C6.24331 3.825 7.43029 3.33333 8.66797 3.33333C9.90565 3.33333 11.0926 3.825 11.9678 4.70017C12.843 5.57534 13.3346 6.76232 13.3346 8C13.3346 9.23768 12.843 10.4247 11.9678 11.2998C11.0926 12.175 9.90565 12.6667 8.66797 12.6667C7.3813 12.6667 6.21464 12.14 5.37464 11.2933L4.42797 12.24C4.98237 12.8003 5.64286 13.2445 6.37085 13.5467C7.09885 13.8489 7.87975 14.003 8.66797 14C10.2593 14 11.7854 13.3679 12.9106 12.2426C14.0358 11.1174 14.668 9.5913 14.668 8C14.668 6.4087 14.0358 4.88258 12.9106 3.75736C11.7854 2.63214 10.2593 2 8.66797 2Z" fill="#8F90A6"/>
</svg>
