<svg width="25" height="25" viewBox="0 0 25 25" fill="none" xmlns="http://www.w3.org/2000/svg">
<g clip-path="url(#clip0_907_10390)">
<path d="M13.1044 2.74973C12.8231 2.46852 12.4417 2.31055 12.0439 2.31055C11.6462 2.31055 11.2647 2.46852 10.9834 2.74973L1.01292 12.7187C0.943184 12.7885 0.88787 12.8712 0.850131 12.9624C0.812393 13.0535 0.792969 13.1511 0.792969 13.2497C0.792969 13.3483 0.812393 13.446 0.850131 13.5371C0.88787 13.6282 0.943184 13.711 1.01292 13.7807C1.15375 13.9216 1.34475 14.0007 1.54392 14.0007C1.64253 14.0007 1.74018 13.9813 1.83129 13.9435C1.9224 13.9058 2.00518 13.8505 2.07492 13.7807L3.04392 12.8102V20.7497C3.04392 21.3465 3.28097 21.9188 3.70293 22.3407C4.12488 22.7627 4.69718 22.9997 5.29392 22.9997H18.7939C19.3907 22.9997 19.9629 22.7627 20.3849 22.3407C20.8069 21.9188 21.0439 21.3465 21.0439 20.7497V12.8102L22.0129 13.7807C22.1537 13.9216 22.3448 14.0007 22.5439 14.0007C22.7431 14.0007 22.9341 13.9216 23.0749 13.7807C23.2157 13.6399 23.2949 13.4489 23.2949 13.2497C23.2949 13.0506 23.2157 12.8596 23.0749 12.7187L19.5439 9.18923V4.24973C19.5439 4.05081 19.4649 3.86005 19.3242 3.7194C19.1836 3.57874 18.9928 3.49973 18.7939 3.49973H17.2939C17.095 3.49973 16.9042 3.57874 16.7636 3.7194C16.6229 3.86005 16.5439 4.05081 16.5439 4.24973V6.18923L13.1044 2.74973ZM19.5439 11.3102V20.7497C19.5439 20.9486 19.4649 21.1394 19.3242 21.2801C19.1836 21.4207 18.9928 21.4997 18.7939 21.4997H5.29392C5.095 21.4997 4.90424 21.4207 4.76359 21.2801C4.62293 21.1394 4.54392 20.9486 4.54392 20.7497V11.3102L12.0439 3.81023L19.5439 11.3102Z" fill="#8F90A6"/>
</g>
<defs>
<clipPath id="clip0_907_10390">
<rect width="24" height="24" fill="white" transform="translate(0.0429688 0.5)"/>
</clipPath>
</defs>
</svg>
