<svg width="15" height="13" viewBox="0 0 15 13" fill="none" xmlns="http://www.w3.org/2000/svg">
<path d="M14.2785 2.07955C13.7429 2.34781 13.2073 2.43722 12.5824 2.52664C13.2073 2.16897 13.6536 1.63246 13.8321 0.917117C13.2966 1.27479 12.6717 1.45363 11.9576 1.63246C11.422 1.09595 10.6186 0.738281 9.81522 0.738281C8.29772 0.738281 6.95875 2.07955 6.95875 3.68908C6.95875 3.95733 6.95875 4.13617 7.04801 4.315C4.63786 4.22558 2.40624 3.06315 0.978007 1.27479C0.710212 1.72188 0.620947 2.16897 0.620947 2.7949C0.620947 3.77849 1.15654 4.67267 1.95992 5.20918C1.5136 5.20918 1.06727 5.03035 0.620947 4.85151C0.620947 6.2822 1.60286 7.44463 2.94183 7.71289C2.67404 7.80231 2.40624 7.8023 2.13845 7.8023C1.95992 7.8023 1.78139 7.80231 1.60286 7.71289C1.95992 8.87532 3.0311 9.7695 4.37007 9.7695C3.38816 10.5743 2.13845 11.0214 0.710212 11.0214C0.442418 11.0214 0.263888 11.0214 -0.00390625 11.0214C1.33507 11.8261 2.85257 12.3626 4.45933 12.3626C9.81522 12.3626 12.761 7.89172 12.761 4.04675C12.761 3.95733 12.761 3.77849 12.761 3.68908C13.3858 3.24199 13.9214 2.70548 14.2785 2.07955Z" fill="#1E2532"/>
</svg>
