<svg width="57" height="63" viewBox="0 0 57 63" fill="none" xmlns="http://www.w3.org/2000/svg">
<circle cx="28.4609" cy="31.7422" r="27.5" fill="#009E68" stroke="white"/>
<path d="M37.5409 41.7182H32.9329L27.7969 33.2462L26.6689 32.4542L27.0769 31.6382H28.3729C29.4289 31.6382 30.2529 31.3662 30.8449 30.8222C31.4529 30.2782 31.7569 29.5262 31.7569 28.5662C31.7569 27.3182 31.4129 26.2942 30.7249 25.4942C30.0529 24.6782 29.0609 24.2702 27.7489 24.2702C26.9009 24.2702 26.1089 24.5342 25.3729 25.0622V39.8222L27.9169 40.6622L27.3889 41.7422H19.8529V40.8782L22.1089 39.1022V24.7502L19.5649 23.9582L20.1169 22.8782H23.1409C24.5969 22.8782 26.0129 22.8302 27.3889 22.7342C28.4129 22.6702 29.1649 22.6382 29.6449 22.6382C30.7489 22.6382 31.7329 22.8542 32.5969 23.2862C33.4609 23.7182 34.1249 24.3102 34.5889 25.0622C35.0689 25.7982 35.3089 26.6062 35.3089 27.4862C35.3089 28.2702 35.0609 29.0222 34.5649 29.7422C34.0849 30.4622 33.4449 31.0942 32.6449 31.6382C31.8449 32.1822 30.9969 32.5982 30.1009 32.8862L31.7329 33.4142L35.3089 39.3182L38.0929 40.6382L37.5409 41.7182Z" fill="white"/>
<path d="M7.88287 28.3015L7.69249 29.0674L7.6112 29.0472L7.67337 28.7971L5.96023 28.3713L5.89806 28.6214L5.81678 28.6012L6.0468 27.6758C6.08721 27.5132 6.15865 27.3861 6.26114 27.2942C6.3886 27.1821 6.53048 27.1454 6.68679 27.1843C6.7514 27.2004 6.8116 27.2297 6.86738 27.2723C7.00765 27.3847 7.07714 27.5458 7.07585 27.7557L8.00752 27.4528L8.03705 27.3341C8.04067 27.3195 8.04482 27.3072 8.0495 27.2973C8.06197 27.2739 8.09113 27.2678 8.13698 27.2792L8.01964 27.7513L7.03561 28.0378L6.96178 28.3348L7.7402 28.5283L7.80159 28.2813L7.88287 28.3015ZM6.10477 27.7898L6.02706 28.1024L6.87112 28.3122L6.95116 27.9902C6.97448 27.8964 6.9668 27.8071 6.92815 27.7223C6.87069 27.5973 6.76693 27.5162 6.61687 27.4789C6.55018 27.4624 6.48325 27.4601 6.41607 27.4722C6.25309 27.5047 6.14932 27.6106 6.10477 27.7898Z" fill="white"/>
<path d="M8.8942 25.016C8.89828 25.006 8.90336 24.9965 8.90943 24.9874C8.92566 24.9592 8.95562 24.9542 8.99931 24.9721L8.71747 25.6573L8.64299 25.6267C8.67076 25.5592 8.68681 25.5089 8.69112 25.4758C8.69658 25.4061 8.65363 25.3524 8.56227 25.3148L7.62385 24.9288L7.52582 25.1672L7.45134 25.1365L7.64128 24.6748L8.83293 25.1649L8.8942 25.016ZM7.22103 24.4601C7.24486 24.4699 7.26566 24.4843 7.28342 24.5032C7.33554 24.5571 7.3473 24.6189 7.31871 24.6884C7.30972 24.7102 7.29677 24.7304 7.27984 24.749C7.22507 24.8031 7.16095 24.8151 7.08746 24.7848C7.06363 24.775 7.04283 24.7607 7.02507 24.7417C6.97377 24.6858 6.96241 24.6231 6.99101 24.5536C6.99999 24.5317 7.01435 24.5109 7.03409 24.4912C7.0892 24.4419 7.15152 24.4315 7.22103 24.4601Z" fill="white"/>
<path d="M9.19491 22.5618C9.44627 22.7063 9.62746 22.6879 9.73849 22.5065C9.84178 22.3256 9.76846 22.1596 9.5185 22.0084C9.27456 21.8683 9.09762 21.8879 8.98768 22.0675C8.88329 22.2502 8.95237 22.415 9.19491 22.5618ZM8.91978 22.024C8.97615 21.9276 9.05005 21.8502 9.14147 21.7917C9.11275 21.76 9.08952 21.7252 9.07178 21.6875C9.02536 21.5882 9.02762 21.495 9.07857 21.4079C9.09049 21.3875 9.10613 21.3693 9.12547 21.3532C9.1773 21.3114 9.23195 21.3072 9.28942 21.3408C9.33328 21.3764 9.34722 21.4207 9.33124 21.4735C9.32149 21.4902 9.30138 21.5033 9.27092 21.5129C9.22576 21.5263 9.1956 21.546 9.18042 21.5719C9.17609 21.5793 9.17268 21.5873 9.17019 21.5958C9.15422 21.6486 9.17101 21.7007 9.22058 21.7521C9.36579 21.6952 9.50846 21.7065 9.64858 21.786C9.75796 21.8499 9.83191 21.9404 9.87043 22.0575C9.92421 22.2208 9.90286 22.3849 9.80638 22.5499L9.66051 22.793C9.65183 22.8078 9.64463 22.8223 9.6389 22.8363C9.6161 22.9051 9.6288 22.9536 9.677 22.9818C9.74668 23.02 9.80923 22.9981 9.86466 22.9161L10.1717 22.4165C10.1869 22.3906 10.2034 22.3666 10.2212 22.3447C10.3526 22.1753 10.498 22.1371 10.6575 22.2304C10.7094 22.2607 10.7498 22.3043 10.7788 22.361C10.8629 22.5321 10.8225 22.7585 10.6578 23.0403C10.5927 23.1515 10.5213 23.2354 10.4435 23.2919C10.323 23.3831 10.2117 23.3989 10.1098 23.3393C10.043 23.3003 9.9951 23.2312 9.96599 23.1321C9.87226 23.1818 9.77573 23.1788 9.67639 23.1232C9.65229 23.1091 9.62981 23.0922 9.60897 23.0726C9.52435 22.9833 9.51673 22.8793 9.58611 22.7607C9.5711 22.7693 9.55517 22.7774 9.53832 22.785C9.3654 22.868 9.2085 22.8683 9.06761 22.7859C8.96009 22.723 8.88706 22.633 8.84854 22.516C8.79847 22.3549 8.82222 22.1909 8.91978 22.024ZM10.5855 22.998C10.6364 22.9109 10.6743 22.8248 10.6991 22.7398C10.7509 22.5661 10.7361 22.4555 10.6545 22.4078C10.6323 22.3947 10.6121 22.3867 10.594 22.3836C10.5198 22.37 10.4411 22.4323 10.358 22.5702L10.102 22.9952C10.0879 23.0193 10.0663 23.0477 10.0372 23.0805C10.0624 23.1524 10.0994 23.2039 10.1484 23.235C10.1743 23.2502 10.2041 23.2589 10.2376 23.2611C10.3622 23.2692 10.4782 23.1816 10.5855 22.998Z" fill="white"/>
<path d="M11.9133 19.9883C11.9216 19.9783 11.9292 19.9708 11.9364 19.9655C11.9602 19.9434 11.9903 19.9474 12.0267 19.9776L11.5647 20.536L11.5027 20.4847C11.5492 20.4284 11.5786 20.3845 11.5909 20.3528C11.6116 20.2974 11.5839 20.2383 11.5077 20.1753L10.1675 19.0665L10.0134 19.2526L9.9514 19.2013L10.2594 18.829L11.0561 19.4881C11.0232 19.4302 11.0021 19.3682 10.9928 19.3019C10.9719 19.1453 11.0121 19.0057 11.1134 18.8833C11.1572 18.8303 11.2098 18.7903 11.2713 18.7631C11.4344 18.6974 11.6061 18.7391 11.7865 18.8883L12.402 19.3975L12.5047 19.2734C12.5129 19.2635 12.5206 19.2559 12.5277 19.2507C12.5516 19.2286 12.5817 19.2326 12.6181 19.2627L12.1664 19.8088L12.1043 19.7574C12.1508 19.7012 12.1796 19.658 12.1905 19.628C12.2057 19.5793 12.1752 19.5235 12.0991 19.4605L11.6325 19.0745C11.5779 19.0293 11.5207 18.9973 11.461 18.9786C11.3338 18.9402 11.2285 18.9716 11.145 19.0725C11.1066 19.1188 11.0838 19.1751 11.0763 19.2414C11.0579 19.4018 11.124 19.5443 11.2746 19.6688L11.8107 20.1124L11.9133 19.9883Z" fill="white"/>
<path d="M13.0976 16.9411L13.0442 16.8808L13.2129 16.7312L13.0099 16.5022L13.1458 16.2913L13.3937 16.571L13.7673 16.2397L13.8208 16.3L13.4471 16.6312L14.0967 17.364C14.2052 17.4831 14.3042 17.5058 14.3939 17.4321C14.461 17.3525 14.4556 17.2281 14.3775 17.0592L14.4533 17.0135C14.4547 17.0151 14.4561 17.0167 14.4576 17.0183C14.5816 17.2327 14.5697 17.4054 14.4218 17.5365C14.2426 17.6839 14.0583 17.6622 13.869 17.4712L13.2663 16.7915L13.0976 16.9411Z" fill="white"/>
<path d="M17.5716 13.6889L17.5346 13.6174L17.7347 13.5136L17.5939 13.2419L17.7772 13.0707L17.9492 13.4024L18.3925 13.1725L18.4295 13.244L17.9863 13.4739L18.4371 14.3432C18.5132 14.4852 18.6037 14.5314 18.7086 14.4818C18.7932 14.421 18.8183 14.2992 18.7839 14.1162L18.8685 14.0905C18.8695 14.0924 18.8705 14.0943 18.8715 14.0962C18.9393 14.3344 18.8856 14.4989 18.7102 14.5899C18.5003 14.689 18.3269 14.6229 18.19 14.3915L17.7718 13.5851L17.5716 13.6889Z" fill="white"/>
<path d="M21.4475 13.2845C21.4576 13.2809 21.468 13.2782 21.4789 13.2766C21.5106 13.2697 21.5345 13.2884 21.5506 13.3328L20.8539 13.585L20.8265 13.5092C20.8952 13.4844 20.9432 13.4624 20.9706 13.4434C21.0258 13.4006 21.0367 13.3327 21.0031 13.2398L20.6578 12.2856L20.4155 12.3733L20.388 12.2976L20.8576 12.1277L21.296 13.3393L21.4475 13.2845ZM20.7339 11.6723C20.7426 11.6965 20.746 11.7216 20.7439 11.7474C20.739 11.8223 20.7013 11.8725 20.6306 11.8981C20.6084 11.9061 20.5847 11.9101 20.5596 11.9101C20.4827 11.9059 20.4307 11.8665 20.4037 11.7918C20.3949 11.7675 20.3916 11.7425 20.3936 11.7166C20.4005 11.641 20.4393 11.5905 20.51 11.5649C20.5322 11.5569 20.5573 11.5535 20.5852 11.5548C20.6587 11.5625 20.7083 11.6016 20.7339 11.6723Z" fill="white"/>
<path d="M23.9375 12.5798C23.948 12.5779 23.9588 12.5769 23.9697 12.5771C24.0026 12.5775 24.0231 12.5998 24.0314 12.6442L23.3349 12.7747L23.32 12.6955C23.3918 12.6821 23.4425 12.6671 23.4722 12.6506C23.5235 12.6213 23.5401 12.5581 23.5219 12.461L23.3351 11.4637L23.0976 11.5082L23.0828 11.429L23.5419 11.343L23.6139 11.6573C23.6243 11.5963 23.6431 11.5393 23.6703 11.4861C23.7454 11.3388 23.8589 11.2508 24.0109 11.2224C24.051 11.2149 24.0914 11.2149 24.1322 11.2226C24.2701 11.247 24.3736 11.3391 24.4428 11.4987C24.4518 11.4533 24.4654 11.4093 24.4836 11.3665C24.5526 11.1985 24.6674 11.0994 24.8278 11.0693C24.9017 11.0555 24.9738 11.0617 25.0443 11.0878C25.2019 11.1478 25.3011 11.2866 25.3418 11.504L25.4889 12.2892L25.6504 12.259C25.6631 12.2566 25.6738 12.2557 25.6826 12.2562C25.7151 12.2545 25.7357 12.2768 25.7444 12.3233L25.0446 12.4544L25.0298 12.3752C25.1016 12.3618 25.1512 12.347 25.1788 12.3309C25.2217 12.3032 25.234 12.2408 25.2159 12.1437L25.0984 11.5168C25.0858 11.4493 25.0639 11.3911 25.0329 11.3423C24.9677 11.2387 24.8812 11.197 24.7735 11.2172C24.7334 11.2247 24.6932 11.2431 24.6528 11.2725C24.5482 11.3555 24.4934 11.4772 24.4885 11.6376L24.4933 11.6629L24.6404 12.4482L24.7828 12.4215C24.7955 12.4191 24.8063 12.4182 24.8151 12.4187C24.8476 12.417 24.8681 12.4394 24.8768 12.4858L24.1961 12.6133L24.1813 12.5342C24.253 12.5207 24.3027 12.506 24.3303 12.4899C24.3732 12.4622 24.3855 12.3998 24.3673 12.3027L24.2499 11.6758C24.238 11.6124 24.2189 11.557 24.1925 11.5095C24.1307 11.401 24.047 11.3565 23.9414 11.3763C23.8844 11.387 23.8314 11.4188 23.7823 11.4717C23.6769 11.5854 23.6384 11.7357 23.6669 11.9226L23.795 12.6065L23.9375 12.5798Z" fill="white"/>
<path d="M28.2291 10.8683C28.1733 10.8688 28.1208 10.8821 28.0716 10.9082C27.9218 10.9845 27.8425 11.1462 27.8337 11.3933L28.1752 11.4003C28.274 11.4017 28.3502 11.3968 28.4038 11.3856C28.5067 11.3612 28.5578 11.2953 28.5569 11.1879C28.5566 11.1407 28.5476 11.0967 28.5301 11.0561C28.4798 10.9298 28.3794 10.8672 28.2291 10.8683ZM28.7974 11.8755C28.7847 11.9056 28.7699 11.9358 28.753 11.966C28.6448 12.1344 28.4747 12.2194 28.2428 12.2212C28.0967 12.2223 27.9665 12.1858 27.8521 12.1115C27.66 11.9841 27.5629 11.7873 27.5609 11.521C27.5597 11.375 27.5888 11.2437 27.648 11.1273C27.7623 10.9031 27.9536 10.7899 28.222 10.7879C28.3595 10.7868 28.481 10.817 28.5868 10.8785C28.7356 10.9632 28.8106 11.0786 28.8117 11.2246C28.8123 11.3041 28.7838 11.3655 28.7261 11.4089C28.6514 11.4632 28.483 11.4892 28.221 11.4869L27.8344 11.4834C27.8372 11.5736 27.8475 11.6562 27.8653 11.7313C27.9254 11.9992 28.0681 12.1324 28.2936 12.1306C28.3129 12.1305 28.3333 12.1292 28.3548 12.1269C28.5221 12.1042 28.6427 12.0109 28.7166 11.8471L28.7974 11.8755Z" fill="white"/>
<path d="M33.366 13.3194L33.5838 13.3779C33.5963 13.3813 33.6064 13.3851 33.6141 13.3894C33.6441 13.4019 33.653 13.431 33.6407 13.4766L32.8785 13.2719L32.8994 13.1941C32.9699 13.2131 33.0221 13.2215 33.056 13.2195C33.1149 13.2153 33.1572 13.1655 33.1828 13.0701L33.6047 11.499L33.3714 11.4364L33.3923 11.3586L33.8403 11.4789L33.7648 11.8222C33.7936 11.781 33.8261 11.743 33.8621 11.7082C34.0045 11.5752 34.1763 11.5358 34.3775 11.5898C34.5082 11.6249 34.608 11.6962 34.677 11.8036C34.7748 11.9611 34.7919 12.158 34.7285 12.3945C34.6728 12.6019 34.5667 12.7568 34.4102 12.8594C34.2484 12.9649 34.0752 12.9929 33.8906 12.9433C33.7435 12.8949 33.6263 12.8056 33.539 12.6754L33.366 13.3194ZM34.2445 11.6875C34.1699 11.6675 34.0953 11.6719 34.0208 11.7008C33.854 11.7672 33.7344 11.9352 33.662 12.2048C33.6308 12.321 33.6194 12.4257 33.6276 12.5191C33.6427 12.7033 33.73 12.8168 33.8897 12.8597C33.9457 12.8747 34.0007 12.8772 34.0545 12.8672C34.2401 12.8304 34.3738 12.6595 34.4557 12.3546C34.4785 12.2695 34.4918 12.1909 34.4957 12.1185C34.5087 11.8796 34.425 11.736 34.2445 11.6875Z" fill="white"/>
<path d="M37.1526 13.9891C37.1644 13.9943 37.1738 13.9997 37.1807 14.0051C37.2085 14.0221 37.2128 14.0521 37.1936 14.0953L36.4661 13.7733L36.4986 13.6997C36.5654 13.7292 36.6157 13.7456 36.6495 13.7488C36.7084 13.7538 36.7578 13.7111 36.7978 13.6207L37.2085 12.6928L36.9875 12.595L37.0201 12.5214L37.4473 12.7104L37.33 13.0073C37.3816 12.9597 37.4394 12.9219 37.5035 12.8938C37.6401 12.8345 37.7673 12.831 37.8852 12.8831C37.9028 12.8909 37.9206 12.9012 37.9385 12.9138C38.0202 12.9734 38.0414 13.0474 38.0023 13.1358C37.9971 13.1475 37.9899 13.1585 37.9808 13.1685C37.9399 13.2185 37.8899 13.2305 37.831 13.2044C37.8193 13.1992 37.8083 13.192 37.7983 13.1828C37.7743 13.1628 37.7587 13.1184 37.7516 13.0495C37.7459 12.9882 37.7263 12.9502 37.6929 12.9354C37.6626 12.9243 37.6167 12.9299 37.5552 12.952C37.3975 13.0113 37.279 13.1303 37.1999 13.309L36.9405 13.8952L37.1526 13.9891Z" fill="white"/>
<path d="M39.7289 14.6488C39.6789 14.7265 39.64 14.801 39.612 14.8724C39.5197 15.1194 39.5648 15.3015 39.7473 15.4187C39.7816 15.4408 39.818 15.4577 39.8563 15.4696C40.0562 15.524 40.2536 15.3994 40.4486 15.0958C40.4823 15.0435 40.5103 14.9938 40.5328 14.947C40.6627 14.6731 40.6274 14.4718 40.4269 14.3429C40.3835 14.3151 40.3373 14.2956 40.2883 14.2845C40.0952 14.2473 39.9088 14.3687 39.7289 14.6488ZM40.4785 14.2804C40.5978 14.357 40.6868 14.4589 40.7456 14.5859C40.8428 14.8041 40.8183 15.027 40.672 15.2547C40.5641 15.4227 40.4217 15.5291 40.245 15.5738C40.0522 15.6235 39.8691 15.5927 39.6957 15.4813C39.5728 15.4024 39.4828 15.2961 39.4257 15.1624C39.3326 14.9418 39.3592 14.7176 39.5054 14.49C39.6111 14.3256 39.7526 14.2225 39.93 14.1807C40.1222 14.1358 40.3051 14.169 40.4785 14.2804Z" fill="white"/>
<path d="M42.0196 17.8325L42.186 17.9847C42.1955 17.9934 42.2027 18.0014 42.2076 18.0088C42.2285 18.0337 42.223 18.0636 42.1911 18.0984L41.6086 17.5658L41.663 17.5064C41.7169 17.5557 41.7593 17.5872 41.7903 17.6011C41.8446 17.6245 41.9051 17.5997 41.9717 17.5268L43.0695 16.3263L42.8912 16.1633L42.9456 16.1039L43.2879 16.4169L43.0628 16.6869C43.1074 16.6636 43.1537 16.6448 43.2017 16.6305C43.3893 16.578 43.56 16.6221 43.7138 16.7627C43.8136 16.854 43.8694 16.9632 43.8812 17.0904C43.8955 17.2752 43.8201 17.4579 43.6549 17.6386C43.5099 17.7971 43.3444 17.8858 43.1583 17.9047C42.9661 17.924 42.7995 17.8691 42.6584 17.7401C42.5501 17.6294 42.4872 17.4962 42.4696 17.3404L42.0196 17.8325ZM43.5507 16.7882C43.4937 16.736 43.4254 16.7056 43.346 16.697C43.1674 16.6792 42.9838 16.7733 42.7954 16.9793C42.7143 17.068 42.6559 17.1558 42.6202 17.2425C42.5488 17.4129 42.5741 17.5539 42.6961 17.6655C42.7389 17.7046 42.7865 17.7321 42.8389 17.748C43.0206 17.8007 43.218 17.7105 43.431 17.4776C43.4905 17.4126 43.5385 17.3489 43.5753 17.2864C43.6968 17.0804 43.6886 16.9143 43.5507 16.7882Z" fill="white"/>
<path d="M46.0457 19.4043C46.0111 19.3604 45.9684 19.3271 45.9176 19.3043C45.7655 19.2328 45.5892 19.2694 45.3886 19.4139L45.5925 19.688C45.6521 19.7669 45.7026 19.824 45.7443 19.8595C45.8267 19.9258 45.9101 19.9257 45.9944 19.8592C46.0315 19.8299 46.0607 19.7959 46.0821 19.7572C46.151 19.6399 46.1388 19.5223 46.0457 19.4043ZM45.5989 20.4708C45.5673 20.4793 45.5344 20.4862 45.5001 20.4913C45.3008 20.5091 45.1293 20.4269 44.9856 20.2448C44.8951 20.1302 44.8442 20.0049 44.8327 19.869C44.8154 19.6391 44.9113 19.4417 45.1204 19.2768C45.235 19.1863 45.3565 19.1288 45.4848 19.1042C45.732 19.0569 45.9387 19.1386 46.105 19.3493C46.1901 19.4572 46.2408 19.5718 46.2571 19.6929C46.2815 19.8625 46.2363 19.9925 46.1217 20.0829C46.0593 20.1322 45.9933 20.1473 45.9236 20.1284C45.8349 20.1026 45.7111 19.9856 45.5522 19.7773L45.3178 19.4698C45.2483 19.5274 45.1894 19.5862 45.141 19.6462C44.9662 19.858 44.9487 20.0524 45.0883 20.2294C45.1003 20.2446 45.1138 20.26 45.1288 20.2755C45.2494 20.3937 45.397 20.4317 45.5717 20.3897L45.5989 20.4708Z" fill="white"/>
<path d="M46.9073 22.8981C46.9137 22.9092 46.9181 22.9191 46.9205 22.9276C46.9329 22.9577 46.9185 22.9845 46.8776 23.008L46.4812 22.3181L46.5511 22.278C46.5874 22.3413 46.6183 22.3842 46.6437 22.4068C46.6882 22.4456 46.7534 22.4404 46.839 22.3912L47.7189 21.8858L47.5985 21.6763L47.6684 21.6361L47.901 22.0412L47.6309 22.2112C47.7007 22.2033 47.7697 22.207 47.8379 22.2223C47.9832 22.2553 48.0879 22.3276 48.1521 22.4394C48.1617 22.4561 48.17 22.4749 48.177 22.4956C48.2075 22.592 48.1809 22.6642 48.0971 22.7124C48.086 22.7188 48.0737 22.7233 48.0604 22.726C47.9979 22.7422 47.9505 22.7223 47.9184 22.6664C47.912 22.6553 47.9075 22.643 47.9048 22.6297C47.8972 22.5994 47.911 22.5543 47.946 22.4946C47.9776 22.4417 47.9843 22.3995 47.9661 22.3679C47.9482 22.341 47.9079 22.3183 47.8453 22.2998C47.683 22.2544 47.5171 22.2803 47.3476 22.3776L46.7918 22.697L46.9073 22.8981Z" fill="white"/>
<path d="M49.0144 24.4095L49.0891 24.3795L49.1733 24.5887L49.4572 24.4744L49.6101 24.6733L49.2635 24.8128L49.4498 25.276L49.3751 25.3061L49.1887 24.8429L48.2802 25.2084C48.1316 25.2705 48.077 25.3562 48.1163 25.4654C48.1687 25.5554 48.2876 25.592 48.473 25.5753L48.4905 25.662C48.4885 25.6628 48.4865 25.6636 48.4845 25.6644C48.241 25.7092 48.0823 25.6399 48.0086 25.4566C47.93 25.2382 48.0124 25.072 48.2558 24.9578L49.0986 24.6187L49.0144 24.4095Z" fill="white"/>
<path d="M48.3736 28.0342C48.3806 28.0634 48.3939 28.0911 48.4135 28.1173C48.4819 28.2091 48.668 28.2803 48.9717 28.331L50.0859 27.4668L50.049 27.3133L50.1304 27.2938L50.2773 27.9045L50.1958 27.9241L50.1454 27.7142L49.2463 28.3843L50.3449 28.5442L50.2899 28.3156L50.3714 28.296L50.4858 28.7721C50.467 28.7766 50.4509 28.7783 50.4373 28.7771C50.4129 28.7764 50.3956 28.7551 50.3856 28.7134C50.3811 28.6946 50.375 28.6784 50.3673 28.6648C50.3529 28.6417 50.314 28.6268 50.2505 28.62L48.9958 28.4312C48.872 28.4124 48.7634 28.3877 48.6699 28.3572C48.4383 28.2848 48.3026 28.1661 48.2629 28.0011C48.2519 27.9552 48.2497 27.9093 48.2564 27.8636C48.2698 27.7631 48.3162 27.7034 48.3955 27.6843C48.4018 27.6828 48.4093 27.6821 48.4182 27.6822C48.4792 27.6786 48.5177 27.7102 48.5337 27.777C48.5398 27.8021 48.5388 27.8255 48.5308 27.8473C48.5212 27.8717 48.4878 27.9029 48.4307 27.9409C48.3846 27.9697 48.3656 28.0007 48.3736 28.0342Z" fill="white"/>
</svg>
